<mxfile host="app.diagrams.net" modified="2021-11-17T02:45:12.477Z" agent="5.0 (X11; Linux x86_64) AppleWebKit/537.36 (KHTML, like Gecko) Chrome/95.0.4638.54 Safari/537.36" etag="6dO8zg_bSVU9huXqmDBV" version="15.7.3" type="github">
  <diagram id="cdFiqQCw5QngY2doHux9" name="Page-1">
    <mxGraphModel dx="1369" dy="796" grid="1" gridSize="10" guides="1" tooltips="1" connect="1" arrows="1" fold="1" page="1" pageScale="1" pageWidth="850" pageHeight="1100" math="0" shadow="0">
      <root>
        <mxCell id="0" />
        <mxCell id="1" parent="0" />
        <mxCell id="TVG5I1HDKWepKC15KVvj-155" value="" style="rhombus;whiteSpace=wrap;html=1;" parent="1" vertex="1">
          <mxGeometry x="70" y="1480" width="420" height="370" as="geometry" />
        </mxCell>
        <mxCell id="TVG5I1HDKWepKC15KVvj-140" value="" style="rhombus;whiteSpace=wrap;html=1;" parent="1" vertex="1">
          <mxGeometry x="630" y="1520" width="480" height="300" as="geometry" />
        </mxCell>
        <mxCell id="TVG5I1HDKWepKC15KVvj-2" value="Deliverable (Auto Script)" style="swimlane;" parent="1" vertex="1">
          <mxGeometry x="1420" y="386" width="340" height="182" as="geometry" />
        </mxCell>
        <mxCell id="TVG5I1HDKWepKC15KVvj-3" value="Documents" style="swimlane;fontStyle=0;childLayout=stackLayout;horizontal=1;startSize=30;horizontalStack=0;resizeParent=1;resizeParentMax=0;resizeLast=0;collapsible=1;marginBottom=0;" parent="TVG5I1HDKWepKC15KVvj-2" vertex="1">
          <mxGeometry x="30" y="50" width="160" height="120" as="geometry" />
        </mxCell>
        <mxCell id="TVG5I1HDKWepKC15KVvj-4" value="New Features" style="text;strokeColor=none;fillColor=none;align=left;verticalAlign=middle;spacingLeft=4;spacingRight=4;overflow=hidden;points=[[0,0.5],[1,0.5]];portConstraint=eastwest;rotatable=0;" parent="TVG5I1HDKWepKC15KVvj-3" vertex="1">
          <mxGeometry y="30" width="160" height="30" as="geometry" />
        </mxCell>
        <mxCell id="TVG5I1HDKWepKC15KVvj-5" value="Issue Logs" style="text;strokeColor=none;fillColor=none;align=left;verticalAlign=middle;spacingLeft=4;spacingRight=4;overflow=hidden;points=[[0,0.5],[1,0.5]];portConstraint=eastwest;rotatable=0;" parent="TVG5I1HDKWepKC15KVvj-3" vertex="1">
          <mxGeometry y="60" width="160" height="30" as="geometry" />
        </mxCell>
        <mxCell id="TVG5I1HDKWepKC15KVvj-7" value="Metric (Deploy time period)" style="text;strokeColor=none;fillColor=none;align=left;verticalAlign=middle;spacingLeft=4;spacingRight=4;overflow=hidden;points=[[0,0.5],[1,0.5]];portConstraint=eastwest;rotatable=0;" parent="TVG5I1HDKWepKC15KVvj-3" vertex="1">
          <mxGeometry y="90" width="160" height="30" as="geometry" />
        </mxCell>
        <mxCell id="TVG5I1HDKWepKC15KVvj-37" value="Changes" style="rhombus;whiteSpace=wrap;html=1;" parent="TVG5I1HDKWepKC15KVvj-2" vertex="1">
          <mxGeometry x="230" y="82" width="80" height="80" as="geometry" />
        </mxCell>
        <mxCell id="TVG5I1HDKWepKC15KVvj-94" value="Operation Tream" style="rounded=0;whiteSpace=wrap;html=1;" parent="TVG5I1HDKWepKC15KVvj-2" vertex="1">
          <mxGeometry x="200" y="32" width="120" height="38" as="geometry" />
        </mxCell>
        <mxCell id="TVG5I1HDKWepKC15KVvj-9" value="Devloping (Auto Script)" style="swimlane;" parent="1" vertex="1">
          <mxGeometry x="1850" y="386" width="360" height="153" as="geometry" />
        </mxCell>
        <mxCell id="TVG5I1HDKWepKC15KVvj-11" value="Documents" style="swimlane;fontStyle=0;childLayout=stackLayout;horizontal=1;startSize=30;horizontalStack=0;resizeParent=1;resizeParentMax=0;resizeLast=0;collapsible=1;marginBottom=0;" parent="TVG5I1HDKWepKC15KVvj-9" vertex="1">
          <mxGeometry x="20" y="28" width="140" height="120" as="geometry" />
        </mxCell>
        <mxCell id="TVG5I1HDKWepKC15KVvj-12" value="Release Plan" style="text;strokeColor=none;fillColor=none;align=left;verticalAlign=middle;spacingLeft=4;spacingRight=4;overflow=hidden;points=[[0,0.5],[1,0.5]];portConstraint=eastwest;rotatable=0;" parent="TVG5I1HDKWepKC15KVvj-11" vertex="1">
          <mxGeometry y="30" width="140" height="30" as="geometry" />
        </mxCell>
        <mxCell id="TVG5I1HDKWepKC15KVvj-13" value="Obstacle Logs" style="text;strokeColor=none;fillColor=none;align=left;verticalAlign=middle;spacingLeft=4;spacingRight=4;overflow=hidden;points=[[0,0.5],[1,0.5]];portConstraint=eastwest;rotatable=0;" parent="TVG5I1HDKWepKC15KVvj-11" vertex="1">
          <mxGeometry y="60" width="140" height="30" as="geometry" />
        </mxCell>
        <mxCell id="TVG5I1HDKWepKC15KVvj-14" value="New Requirements" style="text;strokeColor=none;fillColor=none;align=left;verticalAlign=middle;spacingLeft=4;spacingRight=4;overflow=hidden;points=[[0,0.5],[1,0.5]];portConstraint=eastwest;rotatable=0;" parent="TVG5I1HDKWepKC15KVvj-11" vertex="1">
          <mxGeometry y="90" width="140" height="30" as="geometry" />
        </mxCell>
        <mxCell id="TVG5I1HDKWepKC15KVvj-23" value="Deliverable (BYOAI)" style="swimlane;" parent="1" vertex="1">
          <mxGeometry x="850" y="480" width="460" height="590" as="geometry" />
        </mxCell>
        <mxCell id="TVG5I1HDKWepKC15KVvj-28" value="Deploy" style="rhombus;whiteSpace=wrap;html=1;" parent="TVG5I1HDKWepKC15KVvj-23" vertex="1">
          <mxGeometry x="270" y="40" width="80" height="80" as="geometry" />
        </mxCell>
        <mxCell id="TVG5I1HDKWepKC15KVvj-29" value="Upgrade" style="rhombus;whiteSpace=wrap;html=1;" parent="TVG5I1HDKWepKC15KVvj-23" vertex="1">
          <mxGeometry x="270" y="140" width="80" height="80" as="geometry" />
        </mxCell>
        <mxCell id="TVG5I1HDKWepKC15KVvj-34" value="Documents" style="swimlane;fontStyle=0;childLayout=stackLayout;horizontal=1;startSize=30;horizontalStack=0;resizeParent=1;resizeParentMax=0;resizeLast=0;collapsible=1;marginBottom=0;" parent="TVG5I1HDKWepKC15KVvj-23" vertex="1">
          <mxGeometry x="50" y="250" width="160" height="90" as="geometry" />
        </mxCell>
        <mxCell id="TVG5I1HDKWepKC15KVvj-35" value="Issue Logs" style="text;strokeColor=none;fillColor=none;align=left;verticalAlign=middle;spacingLeft=4;spacingRight=4;overflow=hidden;points=[[0,0.5],[1,0.5]];portConstraint=eastwest;rotatable=0;" parent="TVG5I1HDKWepKC15KVvj-34" vertex="1">
          <mxGeometry y="30" width="160" height="30" as="geometry" />
        </mxCell>
        <mxCell id="TVG5I1HDKWepKC15KVvj-36" value="Metric (Deploy time period)" style="text;strokeColor=none;fillColor=none;align=left;verticalAlign=middle;spacingLeft=4;spacingRight=4;overflow=hidden;points=[[0,0.5],[1,0.5]];portConstraint=eastwest;rotatable=0;" parent="TVG5I1HDKWepKC15KVvj-34" vertex="1">
          <mxGeometry y="60" width="160" height="30" as="geometry" />
        </mxCell>
        <mxCell id="TVG5I1HDKWepKC15KVvj-24" value="Documents" style="swimlane;fontStyle=0;childLayout=stackLayout;horizontal=1;startSize=30;horizontalStack=0;resizeParent=1;resizeParentMax=0;resizeLast=0;collapsible=1;marginBottom=0;" parent="TVG5I1HDKWepKC15KVvj-23" vertex="1">
          <mxGeometry x="50" y="40" width="160" height="90" as="geometry" />
        </mxCell>
        <mxCell id="TVG5I1HDKWepKC15KVvj-26" value="Issue Logs" style="text;strokeColor=none;fillColor=none;align=left;verticalAlign=middle;spacingLeft=4;spacingRight=4;overflow=hidden;points=[[0,0.5],[1,0.5]];portConstraint=eastwest;rotatable=0;" parent="TVG5I1HDKWepKC15KVvj-24" vertex="1">
          <mxGeometry y="30" width="160" height="30" as="geometry" />
        </mxCell>
        <mxCell id="TVG5I1HDKWepKC15KVvj-27" value="Metric (Deploy time period)" style="text;strokeColor=none;fillColor=none;align=left;verticalAlign=middle;spacingLeft=4;spacingRight=4;overflow=hidden;points=[[0,0.5],[1,0.5]];portConstraint=eastwest;rotatable=0;" parent="TVG5I1HDKWepKC15KVvj-24" vertex="1">
          <mxGeometry y="60" width="160" height="30" as="geometry" />
        </mxCell>
        <mxCell id="TVG5I1HDKWepKC15KVvj-31" value="Documents" style="swimlane;fontStyle=0;childLayout=stackLayout;horizontal=1;startSize=30;horizontalStack=0;resizeParent=1;resizeParentMax=0;resizeLast=0;collapsible=1;marginBottom=0;" parent="TVG5I1HDKWepKC15KVvj-23" vertex="1">
          <mxGeometry x="50" y="140" width="160" height="90" as="geometry" />
        </mxCell>
        <mxCell id="TVG5I1HDKWepKC15KVvj-32" value="Issue Logs" style="text;strokeColor=none;fillColor=none;align=left;verticalAlign=middle;spacingLeft=4;spacingRight=4;overflow=hidden;points=[[0,0.5],[1,0.5]];portConstraint=eastwest;rotatable=0;" parent="TVG5I1HDKWepKC15KVvj-31" vertex="1">
          <mxGeometry y="30" width="160" height="30" as="geometry" />
        </mxCell>
        <mxCell id="TVG5I1HDKWepKC15KVvj-33" value="Metric (Deploy time period)" style="text;strokeColor=none;fillColor=none;align=left;verticalAlign=middle;spacingLeft=4;spacingRight=4;overflow=hidden;points=[[0,0.5],[1,0.5]];portConstraint=eastwest;rotatable=0;" parent="TVG5I1HDKWepKC15KVvj-31" vertex="1">
          <mxGeometry y="60" width="160" height="30" as="geometry" />
        </mxCell>
        <mxCell id="TVG5I1HDKWepKC15KVvj-30" value="Monitoring" style="rhombus;whiteSpace=wrap;html=1;" parent="TVG5I1HDKWepKC15KVvj-23" vertex="1">
          <mxGeometry x="270" y="255" width="80" height="80" as="geometry" />
        </mxCell>
        <mxCell id="TVG5I1HDKWepKC15KVvj-52" value="Documents" style="swimlane;fontStyle=0;childLayout=stackLayout;horizontal=1;startSize=30;horizontalStack=0;resizeParent=1;resizeParentMax=0;resizeLast=0;collapsible=1;marginBottom=0;" parent="TVG5I1HDKWepKC15KVvj-23" vertex="1">
          <mxGeometry x="50" y="355" width="160" height="90" as="geometry" />
        </mxCell>
        <mxCell id="TVG5I1HDKWepKC15KVvj-53" value="Issue Logs" style="text;strokeColor=none;fillColor=none;align=left;verticalAlign=middle;spacingLeft=4;spacingRight=4;overflow=hidden;points=[[0,0.5],[1,0.5]];portConstraint=eastwest;rotatable=0;" parent="TVG5I1HDKWepKC15KVvj-52" vertex="1">
          <mxGeometry y="30" width="160" height="30" as="geometry" />
        </mxCell>
        <mxCell id="TVG5I1HDKWepKC15KVvj-54" value="Metric (Deploy time period)" style="text;strokeColor=none;fillColor=none;align=left;verticalAlign=middle;spacingLeft=4;spacingRight=4;overflow=hidden;points=[[0,0.5],[1,0.5]];portConstraint=eastwest;rotatable=0;" parent="TVG5I1HDKWepKC15KVvj-52" vertex="1">
          <mxGeometry y="60" width="160" height="30" as="geometry" />
        </mxCell>
        <mxCell id="TVG5I1HDKWepKC15KVvj-55" value="Develop&lt;br&gt;&amp;amp;&lt;br&gt;Imporvement" style="rhombus;whiteSpace=wrap;html=1;" parent="TVG5I1HDKWepKC15KVvj-23" vertex="1">
          <mxGeometry x="270" y="360" width="80" height="80" as="geometry" />
        </mxCell>
        <mxCell id="TVG5I1HDKWepKC15KVvj-71" value="Maintenance" style="rhombus;whiteSpace=wrap;html=1;" parent="TVG5I1HDKWepKC15KVvj-23" vertex="1">
          <mxGeometry x="270" y="465" width="80" height="80" as="geometry" />
        </mxCell>
        <mxCell id="TVG5I1HDKWepKC15KVvj-72" value="Documents" style="swimlane;fontStyle=0;childLayout=stackLayout;horizontal=1;startSize=30;horizontalStack=0;resizeParent=1;resizeParentMax=0;resizeLast=0;collapsible=1;marginBottom=0;" parent="TVG5I1HDKWepKC15KVvj-23" vertex="1">
          <mxGeometry x="50" y="460" width="160" height="90" as="geometry" />
        </mxCell>
        <mxCell id="TVG5I1HDKWepKC15KVvj-73" value="Issue Logs" style="text;strokeColor=none;fillColor=none;align=left;verticalAlign=middle;spacingLeft=4;spacingRight=4;overflow=hidden;points=[[0,0.5],[1,0.5]];portConstraint=eastwest;rotatable=0;" parent="TVG5I1HDKWepKC15KVvj-72" vertex="1">
          <mxGeometry y="30" width="160" height="30" as="geometry" />
        </mxCell>
        <mxCell id="TVG5I1HDKWepKC15KVvj-74" value="Metric (Deploy time period)" style="text;strokeColor=none;fillColor=none;align=left;verticalAlign=middle;spacingLeft=4;spacingRight=4;overflow=hidden;points=[[0,0.5],[1,0.5]];portConstraint=eastwest;rotatable=0;" parent="TVG5I1HDKWepKC15KVvj-72" vertex="1">
          <mxGeometry y="60" width="160" height="30" as="geometry" />
        </mxCell>
        <mxCell id="TVG5I1HDKWepKC15KVvj-63" value="Documents" style="swimlane;fontStyle=0;childLayout=stackLayout;horizontal=1;startSize=30;horizontalStack=0;resizeParent=1;resizeParentMax=0;resizeLast=0;collapsible=1;marginBottom=0;" parent="TVG5I1HDKWepKC15KVvj-23" vertex="1">
          <mxGeometry x="50" y="40" width="160" height="90" as="geometry" />
        </mxCell>
        <mxCell id="TVG5I1HDKWepKC15KVvj-64" value="Issue Logs" style="text;strokeColor=none;fillColor=none;align=left;verticalAlign=middle;spacingLeft=4;spacingRight=4;overflow=hidden;points=[[0,0.5],[1,0.5]];portConstraint=eastwest;rotatable=0;" parent="TVG5I1HDKWepKC15KVvj-63" vertex="1">
          <mxGeometry y="30" width="160" height="30" as="geometry" />
        </mxCell>
        <mxCell id="TVG5I1HDKWepKC15KVvj-65" value="Metric (Deploy time period)" style="text;strokeColor=none;fillColor=none;align=left;verticalAlign=middle;spacingLeft=4;spacingRight=4;overflow=hidden;points=[[0,0.5],[1,0.5]];portConstraint=eastwest;rotatable=0;" parent="TVG5I1HDKWepKC15KVvj-63" vertex="1">
          <mxGeometry y="60" width="160" height="30" as="geometry" />
        </mxCell>
        <mxCell id="TVG5I1HDKWepKC15KVvj-38" value="" style="endArrow=classic;html=1;exitX=0;exitY=0.5;exitDx=0;exitDy=0;entryX=1;entryY=0.5;entryDx=0;entryDy=0;" parent="1" source="TVG5I1HDKWepKC15KVvj-2" target="TVG5I1HDKWepKC15KVvj-28" edge="1">
          <mxGeometry width="50" height="50" relative="1" as="geometry">
            <mxPoint x="1400" y="680" as="sourcePoint" />
            <mxPoint x="1450" y="630" as="targetPoint" />
          </mxGeometry>
        </mxCell>
        <mxCell id="TVG5I1HDKWepKC15KVvj-39" value="" style="endArrow=classic;html=1;exitX=0;exitY=0.5;exitDx=0;exitDy=0;entryX=1;entryY=0.5;entryDx=0;entryDy=0;" parent="1" source="TVG5I1HDKWepKC15KVvj-2" target="TVG5I1HDKWepKC15KVvj-29" edge="1">
          <mxGeometry width="50" height="50" relative="1" as="geometry">
            <mxPoint x="1400" y="680" as="sourcePoint" />
            <mxPoint x="1450" y="630" as="targetPoint" />
          </mxGeometry>
        </mxCell>
        <mxCell id="TVG5I1HDKWepKC15KVvj-40" value="Deliverable (System Monitor)" style="swimlane;" parent="1" vertex="1">
          <mxGeometry x="1420" y="590" width="340" height="177.5" as="geometry" />
        </mxCell>
        <mxCell id="TVG5I1HDKWepKC15KVvj-41" value="Documents" style="swimlane;fontStyle=0;childLayout=stackLayout;horizontal=1;startSize=30;horizontalStack=0;resizeParent=1;resizeParentMax=0;resizeLast=0;collapsible=1;marginBottom=0;" parent="TVG5I1HDKWepKC15KVvj-40" vertex="1">
          <mxGeometry x="30" y="50" width="160" height="120" as="geometry" />
        </mxCell>
        <mxCell id="TVG5I1HDKWepKC15KVvj-42" value="New Features" style="text;strokeColor=none;fillColor=none;align=left;verticalAlign=middle;spacingLeft=4;spacingRight=4;overflow=hidden;points=[[0,0.5],[1,0.5]];portConstraint=eastwest;rotatable=0;" parent="TVG5I1HDKWepKC15KVvj-41" vertex="1">
          <mxGeometry y="30" width="160" height="30" as="geometry" />
        </mxCell>
        <mxCell id="TVG5I1HDKWepKC15KVvj-43" value="Issue Logs" style="text;strokeColor=none;fillColor=none;align=left;verticalAlign=middle;spacingLeft=4;spacingRight=4;overflow=hidden;points=[[0,0.5],[1,0.5]];portConstraint=eastwest;rotatable=0;" parent="TVG5I1HDKWepKC15KVvj-41" vertex="1">
          <mxGeometry y="60" width="160" height="30" as="geometry" />
        </mxCell>
        <mxCell id="TVG5I1HDKWepKC15KVvj-44" value="Metric (Deploy time period)" style="text;strokeColor=none;fillColor=none;align=left;verticalAlign=middle;spacingLeft=4;spacingRight=4;overflow=hidden;points=[[0,0.5],[1,0.5]];portConstraint=eastwest;rotatable=0;" parent="TVG5I1HDKWepKC15KVvj-41" vertex="1">
          <mxGeometry y="90" width="160" height="30" as="geometry" />
        </mxCell>
        <mxCell id="TVG5I1HDKWepKC15KVvj-45" value="Changes" style="rhombus;whiteSpace=wrap;html=1;" parent="TVG5I1HDKWepKC15KVvj-40" vertex="1">
          <mxGeometry x="230" y="90" width="80" height="80" as="geometry" />
        </mxCell>
        <mxCell id="TVG5I1HDKWepKC15KVvj-96" value="Operation Tream&lt;br&gt;CS Team" style="rounded=0;whiteSpace=wrap;html=1;" parent="TVG5I1HDKWepKC15KVvj-40" vertex="1">
          <mxGeometry x="210" y="32" width="120" height="38" as="geometry" />
        </mxCell>
        <mxCell id="TVG5I1HDKWepKC15KVvj-46" value="" style="endArrow=classic;html=1;exitX=0;exitY=0.5;exitDx=0;exitDy=0;entryX=1;entryY=0.5;entryDx=0;entryDy=0;" parent="1" source="TVG5I1HDKWepKC15KVvj-40" target="TVG5I1HDKWepKC15KVvj-30" edge="1">
          <mxGeometry width="50" height="50" relative="1" as="geometry">
            <mxPoint x="1350" y="680" as="sourcePoint" />
            <mxPoint x="1400" y="630" as="targetPoint" />
          </mxGeometry>
        </mxCell>
        <mxCell id="TVG5I1HDKWepKC15KVvj-47" value="Devloping (System Monitor)" style="swimlane;" parent="1" vertex="1">
          <mxGeometry x="1850" y="568" width="360" height="153" as="geometry" />
        </mxCell>
        <mxCell id="TVG5I1HDKWepKC15KVvj-48" value="Documents" style="swimlane;fontStyle=0;childLayout=stackLayout;horizontal=1;startSize=30;horizontalStack=0;resizeParent=1;resizeParentMax=0;resizeLast=0;collapsible=1;marginBottom=0;" parent="TVG5I1HDKWepKC15KVvj-47" vertex="1">
          <mxGeometry x="20" y="28" width="140" height="120" as="geometry" />
        </mxCell>
        <mxCell id="TVG5I1HDKWepKC15KVvj-49" value="Release Plan" style="text;strokeColor=none;fillColor=none;align=left;verticalAlign=middle;spacingLeft=4;spacingRight=4;overflow=hidden;points=[[0,0.5],[1,0.5]];portConstraint=eastwest;rotatable=0;" parent="TVG5I1HDKWepKC15KVvj-48" vertex="1">
          <mxGeometry y="30" width="140" height="30" as="geometry" />
        </mxCell>
        <mxCell id="TVG5I1HDKWepKC15KVvj-50" value="Obstacle Logs" style="text;strokeColor=none;fillColor=none;align=left;verticalAlign=middle;spacingLeft=4;spacingRight=4;overflow=hidden;points=[[0,0.5],[1,0.5]];portConstraint=eastwest;rotatable=0;" parent="TVG5I1HDKWepKC15KVvj-48" vertex="1">
          <mxGeometry y="60" width="140" height="30" as="geometry" />
        </mxCell>
        <mxCell id="TVG5I1HDKWepKC15KVvj-51" value="New Requirements" style="text;strokeColor=none;fillColor=none;align=left;verticalAlign=middle;spacingLeft=4;spacingRight=4;overflow=hidden;points=[[0,0.5],[1,0.5]];portConstraint=eastwest;rotatable=0;" parent="TVG5I1HDKWepKC15KVvj-48" vertex="1">
          <mxGeometry y="90" width="140" height="30" as="geometry" />
        </mxCell>
        <mxCell id="TVG5I1HDKWepKC15KVvj-56" value="Deliverable (Superset)" style="swimlane;" parent="1" vertex="1">
          <mxGeometry x="1420" y="790" width="340" height="180" as="geometry" />
        </mxCell>
        <mxCell id="TVG5I1HDKWepKC15KVvj-57" value="Documents" style="swimlane;fontStyle=0;childLayout=stackLayout;horizontal=1;startSize=30;horizontalStack=0;resizeParent=1;resizeParentMax=0;resizeLast=0;collapsible=1;marginBottom=0;" parent="TVG5I1HDKWepKC15KVvj-56" vertex="1">
          <mxGeometry x="30" y="50" width="160" height="120" as="geometry" />
        </mxCell>
        <mxCell id="TVG5I1HDKWepKC15KVvj-58" value="New Features" style="text;strokeColor=none;fillColor=none;align=left;verticalAlign=middle;spacingLeft=4;spacingRight=4;overflow=hidden;points=[[0,0.5],[1,0.5]];portConstraint=eastwest;rotatable=0;" parent="TVG5I1HDKWepKC15KVvj-57" vertex="1">
          <mxGeometry y="30" width="160" height="30" as="geometry" />
        </mxCell>
        <mxCell id="TVG5I1HDKWepKC15KVvj-59" value="Issue Logs" style="text;strokeColor=none;fillColor=none;align=left;verticalAlign=middle;spacingLeft=4;spacingRight=4;overflow=hidden;points=[[0,0.5],[1,0.5]];portConstraint=eastwest;rotatable=0;" parent="TVG5I1HDKWepKC15KVvj-57" vertex="1">
          <mxGeometry y="60" width="160" height="30" as="geometry" />
        </mxCell>
        <mxCell id="TVG5I1HDKWepKC15KVvj-60" value="Metric" style="text;strokeColor=none;fillColor=none;align=left;verticalAlign=middle;spacingLeft=4;spacingRight=4;overflow=hidden;points=[[0,0.5],[1,0.5]];portConstraint=eastwest;rotatable=0;" parent="TVG5I1HDKWepKC15KVvj-57" vertex="1">
          <mxGeometry y="90" width="160" height="30" as="geometry" />
        </mxCell>
        <mxCell id="TVG5I1HDKWepKC15KVvj-61" value="Changes" style="rhombus;whiteSpace=wrap;html=1;" parent="TVG5I1HDKWepKC15KVvj-56" vertex="1">
          <mxGeometry x="230" y="90" width="80" height="80" as="geometry" />
        </mxCell>
        <mxCell id="TVG5I1HDKWepKC15KVvj-97" value="Operation Tream&lt;br&gt;CS Team&lt;br&gt;Product Team" style="rounded=0;whiteSpace=wrap;html=1;" parent="TVG5I1HDKWepKC15KVvj-56" vertex="1">
          <mxGeometry x="210" y="32" width="120" height="48" as="geometry" />
        </mxCell>
        <mxCell id="TVG5I1HDKWepKC15KVvj-62" value="" style="endArrow=classic;html=1;exitX=0;exitY=0.5;exitDx=0;exitDy=0;entryX=1;entryY=0.5;entryDx=0;entryDy=0;" parent="1" source="TVG5I1HDKWepKC15KVvj-56" target="TVG5I1HDKWepKC15KVvj-55" edge="1">
          <mxGeometry width="50" height="50" relative="1" as="geometry">
            <mxPoint x="1560" y="830" as="sourcePoint" />
            <mxPoint x="1610" y="780" as="targetPoint" />
          </mxGeometry>
        </mxCell>
        <mxCell id="TVG5I1HDKWepKC15KVvj-70" value="" style="endArrow=classic;html=1;exitX=0;exitY=0.3333333333333333;exitDx=0;exitDy=0;exitPerimeter=0;entryX=1;entryY=0.5;entryDx=0;entryDy=0;" parent="1" source="TVG5I1HDKWepKC15KVvj-69" target="TVG5I1HDKWepKC15KVvj-71" edge="1">
          <mxGeometry width="50" height="50" relative="1" as="geometry">
            <mxPoint x="1350" y="1090" as="sourcePoint" />
            <mxPoint x="1250" y="1130" as="targetPoint" />
          </mxGeometry>
        </mxCell>
        <mxCell id="TVG5I1HDKWepKC15KVvj-77" value="Operation engineer (Adhoc)" style="swimlane;startSize=23;" parent="1" vertex="1">
          <mxGeometry x="1420" y="990" width="340" height="170" as="geometry" />
        </mxCell>
        <mxCell id="TVG5I1HDKWepKC15KVvj-83" value="Documents" style="swimlane;fontStyle=0;childLayout=stackLayout;horizontal=1;startSize=30;horizontalStack=0;resizeParent=1;resizeParentMax=0;resizeLast=0;collapsible=1;marginBottom=0;" parent="TVG5I1HDKWepKC15KVvj-77" vertex="1">
          <mxGeometry x="110" y="70" width="160" height="90" as="geometry" />
        </mxCell>
        <mxCell id="TVG5I1HDKWepKC15KVvj-85" value="Maintenance Logs" style="text;strokeColor=none;fillColor=none;align=left;verticalAlign=middle;spacingLeft=4;spacingRight=4;overflow=hidden;points=[[0,0.5],[1,0.5]];portConstraint=eastwest;rotatable=0;" parent="TVG5I1HDKWepKC15KVvj-83" vertex="1">
          <mxGeometry y="30" width="160" height="30" as="geometry" />
        </mxCell>
        <mxCell id="TVG5I1HDKWepKC15KVvj-86" value="Metric" style="text;strokeColor=none;fillColor=none;align=left;verticalAlign=middle;spacingLeft=4;spacingRight=4;overflow=hidden;points=[[0,0.5],[1,0.5]];portConstraint=eastwest;rotatable=0;" parent="TVG5I1HDKWepKC15KVvj-83" vertex="1">
          <mxGeometry y="60" width="160" height="30" as="geometry" />
        </mxCell>
        <mxCell id="TVG5I1HDKWepKC15KVvj-69" value="Actor" style="shape=umlActor;verticalLabelPosition=bottom;verticalAlign=top;html=1;outlineConnect=0;" parent="TVG5I1HDKWepKC15KVvj-77" vertex="1">
          <mxGeometry x="50" y="55" width="30" height="60" as="geometry" />
        </mxCell>
        <mxCell id="TVG5I1HDKWepKC15KVvj-88" value="Changes Makers" style="swimlane;" parent="1" vertex="1">
          <mxGeometry x="1850" y="820" width="360" height="290" as="geometry" />
        </mxCell>
        <mxCell id="TVG5I1HDKWepKC15KVvj-89" value="Software (issue)" style="ellipse;whiteSpace=wrap;html=1;aspect=fixed;" parent="TVG5I1HDKWepKC15KVvj-88" vertex="1">
          <mxGeometry x="140" y="60" width="80" height="80" as="geometry" />
        </mxCell>
        <mxCell id="TVG5I1HDKWepKC15KVvj-90" value="Byoai&lt;br&gt;(New Release)" style="ellipse;whiteSpace=wrap;html=1;aspect=fixed;" parent="TVG5I1HDKWepKC15KVvj-88" vertex="1">
          <mxGeometry x="30" y="60" width="80" height="80" as="geometry" />
        </mxCell>
        <mxCell id="TVG5I1HDKWepKC15KVvj-91" value="New Feature&lt;br&gt;(from users)" style="ellipse;whiteSpace=wrap;html=1;aspect=fixed;" parent="TVG5I1HDKWepKC15KVvj-88" vertex="1">
          <mxGeometry x="250" y="60" width="80" height="80" as="geometry" />
        </mxCell>
        <mxCell id="TVG5I1HDKWepKC15KVvj-92" value="Tools Bug" style="ellipse;whiteSpace=wrap;html=1;aspect=fixed;" parent="TVG5I1HDKWepKC15KVvj-88" vertex="1">
          <mxGeometry x="70" y="170" width="80" height="80" as="geometry" />
        </mxCell>
        <mxCell id="TVG5I1HDKWepKC15KVvj-93" value="Outside environment changes" style="ellipse;whiteSpace=wrap;html=1;aspect=fixed;" parent="TVG5I1HDKWepKC15KVvj-88" vertex="1">
          <mxGeometry x="220" y="170" width="80" height="80" as="geometry" />
        </mxCell>
        <mxCell id="TVG5I1HDKWepKC15KVvj-106" value="" style="endArrow=classic;html=1;exitX=0;exitY=0.5;exitDx=0;exitDy=0;" parent="1" source="TVG5I1HDKWepKC15KVvj-23" target="TVG5I1HDKWepKC15KVvj-107" edge="1">
          <mxGeometry width="50" height="50" relative="1" as="geometry">
            <mxPoint x="1000" y="800" as="sourcePoint" />
            <mxPoint x="670" y="775" as="targetPoint" />
          </mxGeometry>
        </mxCell>
        <mxCell id="TVG5I1HDKWepKC15KVvj-107" value="Client" style="ellipse;whiteSpace=wrap;html=1;aspect=fixed;" parent="1" vertex="1">
          <mxGeometry x="430" y="735" width="80" height="80" as="geometry" />
        </mxCell>
        <mxCell id="TVG5I1HDKWepKC15KVvj-109" value="Actor" style="shape=umlActor;verticalLabelPosition=bottom;verticalAlign=top;html=1;outlineConnect=0;" parent="1" vertex="1">
          <mxGeometry x="1260" y="1130" width="30" height="60" as="geometry" />
        </mxCell>
        <mxCell id="TVG5I1HDKWepKC15KVvj-110" value="" style="endArrow=classic;html=1;exitX=0;exitY=0.3333333333333333;exitDx=0;exitDy=0;exitPerimeter=0;entryX=1;entryY=0.5;entryDx=0;entryDy=0;" parent="1" source="TVG5I1HDKWepKC15KVvj-109" target="TVG5I1HDKWepKC15KVvj-122" edge="1">
          <mxGeometry width="50" height="50" relative="1" as="geometry">
            <mxPoint x="1000" y="1010" as="sourcePoint" />
            <mxPoint x="1080" y="1150" as="targetPoint" />
          </mxGeometry>
        </mxCell>
        <mxCell id="TVG5I1HDKWepKC15KVvj-118" value="" style="endArrow=classic;startArrow=classic;html=1;exitX=0.5;exitY=1;exitDx=0;exitDy=0;entryX=0;entryY=0.5;entryDx=0;entryDy=0;" parent="1" source="TVG5I1HDKWepKC15KVvj-107" target="TVG5I1HDKWepKC15KVvj-122" edge="1">
          <mxGeometry width="50" height="50" relative="1" as="geometry">
            <mxPoint x="1260" y="1150" as="sourcePoint" />
            <mxPoint x="960" y="1150" as="targetPoint" />
            <Array as="points">
              <mxPoint x="680" y="1120" />
            </Array>
          </mxGeometry>
        </mxCell>
        <mxCell id="TVG5I1HDKWepKC15KVvj-121" value="" style="endArrow=classic;html=1;exitX=1;exitY=0.3333333333333333;exitDx=0;exitDy=0;exitPerimeter=0;entryX=0;entryY=0.5;entryDx=0;entryDy=0;" parent="1" source="TVG5I1HDKWepKC15KVvj-109" target="TVG5I1HDKWepKC15KVvj-123" edge="1">
          <mxGeometry width="50" height="50" relative="1" as="geometry">
            <mxPoint x="1260" y="1150" as="sourcePoint" />
            <mxPoint x="1460" y="1290" as="targetPoint" />
          </mxGeometry>
        </mxCell>
        <mxCell id="TVG5I1HDKWepKC15KVvj-122" value="Network support" style="rhombus;whiteSpace=wrap;html=1;" parent="1" vertex="1">
          <mxGeometry x="970" y="1100" width="80" height="80" as="geometry" />
        </mxCell>
        <mxCell id="TVG5I1HDKWepKC15KVvj-123" value="DataTeam" style="ellipse;whiteSpace=wrap;html=1;aspect=fixed;" parent="1" vertex="1">
          <mxGeometry x="1440" y="1210" width="80" height="80" as="geometry" />
        </mxCell>
        <mxCell id="TVG5I1HDKWepKC15KVvj-124" value="" style="endArrow=classic;html=1;exitX=0.613;exitY=0.037;exitDx=0;exitDy=0;exitPerimeter=0;entryX=0;entryY=0.5;entryDx=0;entryDy=0;" parent="1" source="TVG5I1HDKWepKC15KVvj-107" target="TVG5I1HDKWepKC15KVvj-125" edge="1">
          <mxGeometry width="50" height="50" relative="1" as="geometry">
            <mxPoint x="1260" y="830" as="sourcePoint" />
            <mxPoint x="580" y="640" as="targetPoint" />
          </mxGeometry>
        </mxCell>
        <mxCell id="TVG5I1HDKWepKC15KVvj-125" value="Integration" style="rhombus;whiteSpace=wrap;html=1;" parent="1" vertex="1">
          <mxGeometry x="650" y="630" width="80" height="80" as="geometry" />
        </mxCell>
        <mxCell id="TVG5I1HDKWepKC15KVvj-126" value="" style="endArrow=classic;html=1;exitX=1;exitY=0.5;exitDx=0;exitDy=0;entryX=0;entryY=0.25;entryDx=0;entryDy=0;" parent="1" source="TVG5I1HDKWepKC15KVvj-125" target="TVG5I1HDKWepKC15KVvj-23" edge="1">
          <mxGeometry width="50" height="50" relative="1" as="geometry">
            <mxPoint x="1260" y="830" as="sourcePoint" />
            <mxPoint x="1310" y="780" as="targetPoint" />
          </mxGeometry>
        </mxCell>
        <mxCell id="TVG5I1HDKWepKC15KVvj-127" value="supplier&lt;br&gt;vendor" style="ellipse;whiteSpace=wrap;html=1;aspect=fixed;" parent="1" vertex="1">
          <mxGeometry x="430" y="1270" width="80" height="80" as="geometry" />
        </mxCell>
        <mxCell id="TVG5I1HDKWepKC15KVvj-128" value="" style="endArrow=classic;html=1;exitX=1;exitY=0.5;exitDx=0;exitDy=0;entryX=0;entryY=0.5;entryDx=0;entryDy=0;" parent="1" source="TVG5I1HDKWepKC15KVvj-127" target="TVG5I1HDKWepKC15KVvj-129" edge="1">
          <mxGeometry width="50" height="50" relative="1" as="geometry">
            <mxPoint x="760" y="1250" as="sourcePoint" />
            <mxPoint x="900" y="1320" as="targetPoint" />
          </mxGeometry>
        </mxCell>
        <mxCell id="TVG5I1HDKWepKC15KVvj-129" value="Machine Spc &amp;amp; base SO Installation&lt;br&gt;Support" style="rhombus;whiteSpace=wrap;html=1;" parent="1" vertex="1">
          <mxGeometry x="820" y="1270" width="80" height="80" as="geometry" />
        </mxCell>
        <mxCell id="TVG5I1HDKWepKC15KVvj-130" value="" style="endArrow=classic;html=1;exitX=1;exitY=0.5;exitDx=0;exitDy=0;entryX=0;entryY=0.3333333333333333;entryDx=0;entryDy=0;entryPerimeter=0;" parent="1" source="TVG5I1HDKWepKC15KVvj-129" target="TVG5I1HDKWepKC15KVvj-131" edge="1">
          <mxGeometry width="50" height="50" relative="1" as="geometry">
            <mxPoint x="760" y="1220" as="sourcePoint" />
            <mxPoint x="1160" y="1310" as="targetPoint" />
          </mxGeometry>
        </mxCell>
        <mxCell id="TVG5I1HDKWepKC15KVvj-131" value="Actor" style="shape=umlActor;verticalLabelPosition=bottom;verticalAlign=top;html=1;outlineConnect=0;" parent="1" vertex="1">
          <mxGeometry x="1150" y="1290" width="30" height="60" as="geometry" />
        </mxCell>
        <mxCell id="TVG5I1HDKWepKC15KVvj-133" value="Deploy" style="rhombus;whiteSpace=wrap;html=1;" parent="1" vertex="1">
          <mxGeometry x="310" y="1630" width="80" height="80" as="geometry" />
        </mxCell>
        <mxCell id="TVG5I1HDKWepKC15KVvj-136" value="" style="endArrow=classic;html=1;exitX=1;exitY=0.5;exitDx=0;exitDy=0;entryX=0;entryY=0.5;entryDx=0;entryDy=0;" parent="1" source="TVG5I1HDKWepKC15KVvj-133" target="TVG5I1HDKWepKC15KVvj-138" edge="1">
          <mxGeometry width="50" height="50" relative="1" as="geometry">
            <mxPoint x="1010" y="1880" as="sourcePoint" />
            <mxPoint x="850" y="1750" as="targetPoint" />
          </mxGeometry>
        </mxCell>
        <mxCell id="TVG5I1HDKWepKC15KVvj-137" value="Version Release" style="edgeLabel;html=1;align=center;verticalAlign=middle;resizable=0;points=[];" parent="TVG5I1HDKWepKC15KVvj-136" vertex="1" connectable="0">
          <mxGeometry x="0.0938" y="1" relative="1" as="geometry">
            <mxPoint as="offset" />
          </mxGeometry>
        </mxCell>
        <mxCell id="TVG5I1HDKWepKC15KVvj-138" value="Upgrade" style="rhombus;whiteSpace=wrap;html=1;" parent="1" vertex="1">
          <mxGeometry x="830" y="1560" width="80" height="80" as="geometry" />
        </mxCell>
        <mxCell id="TVG5I1HDKWepKC15KVvj-142" value="" style="endArrow=classic;html=1;exitX=1;exitY=0.5;exitDx=0;exitDy=0;entryX=0;entryY=0.5;entryDx=0;entryDy=0;" parent="1" source="TVG5I1HDKWepKC15KVvj-133" target="TVG5I1HDKWepKC15KVvj-143" edge="1">
          <mxGeometry width="50" height="50" relative="1" as="geometry">
            <mxPoint x="1010" y="1450" as="sourcePoint" />
            <mxPoint x="900" y="1820" as="targetPoint" />
          </mxGeometry>
        </mxCell>
        <mxCell id="TVG5I1HDKWepKC15KVvj-145" value="Issues" style="edgeLabel;html=1;align=center;verticalAlign=middle;resizable=0;points=[];" parent="TVG5I1HDKWepKC15KVvj-142" vertex="1" connectable="0">
          <mxGeometry x="0.0996" y="-2" relative="1" as="geometry">
            <mxPoint as="offset" />
          </mxGeometry>
        </mxCell>
        <mxCell id="TVG5I1HDKWepKC15KVvj-143" value="Maintennace" style="rhombus;whiteSpace=wrap;html=1;" parent="1" vertex="1">
          <mxGeometry x="830" y="1650" width="80" height="80" as="geometry" />
        </mxCell>
        <mxCell id="TVG5I1HDKWepKC15KVvj-146" value="" style="endArrow=classic;html=1;exitX=1;exitY=0.5;exitDx=0;exitDy=0;entryX=0;entryY=0.5;entryDx=0;entryDy=0;" parent="1" source="TVG5I1HDKWepKC15KVvj-133" target="TVG5I1HDKWepKC15KVvj-149" edge="1">
          <mxGeometry width="50" height="50" relative="1" as="geometry">
            <mxPoint x="1010" y="1630" as="sourcePoint" />
            <mxPoint x="490" y="1880" as="targetPoint" />
            <Array as="points" />
          </mxGeometry>
        </mxCell>
        <mxCell id="TVG5I1HDKWepKC15KVvj-147" value="Research &lt;br&gt;New feature" style="edgeLabel;html=1;align=center;verticalAlign=middle;resizable=0;points=[];" parent="TVG5I1HDKWepKC15KVvj-146" vertex="1" connectable="0">
          <mxGeometry x="0.1047" y="3" relative="1" as="geometry">
            <mxPoint as="offset" />
          </mxGeometry>
        </mxCell>
        <mxCell id="TVG5I1HDKWepKC15KVvj-149" value="Develop" style="rhombus;whiteSpace=wrap;html=1;" parent="1" vertex="1">
          <mxGeometry x="510" y="1940" width="80" height="80" as="geometry" />
        </mxCell>
        <mxCell id="TVG5I1HDKWepKC15KVvj-150" value="Monitoring" style="text;html=1;strokeColor=none;fillColor=none;align=center;verticalAlign=middle;whiteSpace=wrap;rounded=0;" parent="1" vertex="1">
          <mxGeometry x="850" y="1530" width="40" height="20" as="geometry" />
        </mxCell>
        <mxCell id="TVG5I1HDKWepKC15KVvj-151" value="Machine Spc &amp;amp; base SO Installation&lt;br&gt;Support" style="rhombus;whiteSpace=wrap;html=1;" parent="1" vertex="1">
          <mxGeometry x="130" y="1630" width="80" height="80" as="geometry" />
        </mxCell>
        <mxCell id="TVG5I1HDKWepKC15KVvj-152" value="" style="endArrow=classic;html=1;exitX=1;exitY=0.5;exitDx=0;exitDy=0;entryX=0;entryY=0.5;entryDx=0;entryDy=0;" parent="1" source="TVG5I1HDKWepKC15KVvj-151" target="TVG5I1HDKWepKC15KVvj-133" edge="1">
          <mxGeometry width="50" height="50" relative="1" as="geometry">
            <mxPoint x="1020" y="1560" as="sourcePoint" />
            <mxPoint x="1070" y="1510" as="targetPoint" />
          </mxGeometry>
        </mxCell>
        <mxCell id="TVG5I1HDKWepKC15KVvj-153" value="" style="endArrow=classic;html=1;exitX=1;exitY=0.5;exitDx=0;exitDy=0;entryX=0;entryY=0.5;entryDx=0;entryDy=0;" parent="1" source="TVG5I1HDKWepKC15KVvj-133" target="TVG5I1HDKWepKC15KVvj-154" edge="1">
          <mxGeometry width="50" height="50" relative="1" as="geometry">
            <mxPoint x="820" y="1540" as="sourcePoint" />
            <mxPoint x="390" y="1930" as="targetPoint" />
          </mxGeometry>
        </mxCell>
        <mxCell id="TVG5I1HDKWepKC15KVvj-157" value="Client requrement" style="edgeLabel;html=1;align=center;verticalAlign=middle;resizable=0;points=[];" parent="TVG5I1HDKWepKC15KVvj-153" vertex="1" connectable="0">
          <mxGeometry x="0.1254" y="-1" relative="1" as="geometry">
            <mxPoint as="offset" />
          </mxGeometry>
        </mxCell>
        <mxCell id="TVG5I1HDKWepKC15KVvj-154" value="Integration" style="rhombus;whiteSpace=wrap;html=1;" parent="1" vertex="1">
          <mxGeometry x="630" y="1870" width="80" height="80" as="geometry" />
        </mxCell>
        <mxCell id="TVG5I1HDKWepKC15KVvj-156" value="Network Support" style="text;html=1;strokeColor=none;fillColor=none;align=center;verticalAlign=middle;whiteSpace=wrap;rounded=0;" parent="1" vertex="1">
          <mxGeometry x="260" y="1510" width="40" height="20" as="geometry" />
        </mxCell>
        <mxCell id="TVG5I1HDKWepKC15KVvj-159" value="" style="endArrow=classic;html=1;exitX=0.5;exitY=1;exitDx=0;exitDy=0;entryX=0;entryY=0.5;entryDx=0;entryDy=0;" parent="1" source="TVG5I1HDKWepKC15KVvj-149" target="TVG5I1HDKWepKC15KVvj-160" edge="1">
          <mxGeometry width="50" height="50" relative="1" as="geometry">
            <mxPoint x="470" y="1770" as="sourcePoint" />
            <mxPoint x="690" y="2140" as="targetPoint" />
          </mxGeometry>
        </mxCell>
        <mxCell id="TVG5I1HDKWepKC15KVvj-160" value="Product" style="ellipse;whiteSpace=wrap;html=1;aspect=fixed;" parent="1" vertex="1">
          <mxGeometry x="770" y="1990" width="80" height="80" as="geometry" />
        </mxCell>
        <mxCell id="TVG5I1HDKWepKC15KVvj-161" value="NetWork Support" style="swimlane;" parent="1" vertex="1">
          <mxGeometry x="170" y="2290" width="520" height="190" as="geometry" />
        </mxCell>
        <mxCell id="TVG5I1HDKWepKC15KVvj-169" value="Client IT" style="ellipse;whiteSpace=wrap;html=1;aspect=fixed;" parent="TVG5I1HDKWepKC15KVvj-161" vertex="1">
          <mxGeometry x="210" y="25" width="80" height="80" as="geometry" />
        </mxCell>
        <mxCell id="TVG5I1HDKWepKC15KVvj-171" value="Output" style="swimlane;fontStyle=0;childLayout=stackLayout;horizontal=1;startSize=30;horizontalStack=0;resizeParent=1;resizeParentMax=0;resizeLast=0;collapsible=1;marginBottom=0;" parent="TVG5I1HDKWepKC15KVvj-161" vertex="1">
          <mxGeometry x="360" y="60" width="140" height="120" as="geometry" />
        </mxCell>
        <mxCell id="TVG5I1HDKWepKC15KVvj-173" value="Camera Network" style="text;strokeColor=none;fillColor=none;align=left;verticalAlign=middle;spacingLeft=4;spacingRight=4;overflow=hidden;points=[[0,0.5],[1,0.5]];portConstraint=eastwest;rotatable=0;" parent="TVG5I1HDKWepKC15KVvj-171" vertex="1">
          <mxGeometry y="30" width="140" height="30" as="geometry" />
        </mxCell>
        <mxCell id="TVG5I1HDKWepKC15KVvj-202" value="BYOAI Network Info" style="text;strokeColor=none;fillColor=none;align=left;verticalAlign=middle;spacingLeft=4;spacingRight=4;overflow=hidden;points=[[0,0.5],[1,0.5]];portConstraint=eastwest;rotatable=0;" parent="TVG5I1HDKWepKC15KVvj-171" vertex="1">
          <mxGeometry y="60" width="140" height="30" as="geometry" />
        </mxCell>
        <mxCell id="TVG5I1HDKWepKC15KVvj-250" value="Remote Access Method" style="text;strokeColor=none;fillColor=none;align=left;verticalAlign=middle;spacingLeft=4;spacingRight=4;overflow=hidden;points=[[0,0.5],[1,0.5]];portConstraint=eastwest;rotatable=0;" parent="TVG5I1HDKWepKC15KVvj-171" vertex="1">
          <mxGeometry y="90" width="140" height="30" as="geometry" />
        </mxCell>
        <mxCell id="TVG5I1HDKWepKC15KVvj-170" value="" style="endArrow=classic;html=1;exitX=1;exitY=0.5;exitDx=0;exitDy=0;entryX=0;entryY=0;entryDx=0;entryDy=0;" parent="TVG5I1HDKWepKC15KVvj-161" source="TVG5I1HDKWepKC15KVvj-169" target="TVG5I1HDKWepKC15KVvj-171" edge="1">
          <mxGeometry width="50" height="50" relative="1" as="geometry">
            <mxPoint x="570" y="250" as="sourcePoint" />
            <mxPoint x="342" y="60" as="targetPoint" />
          </mxGeometry>
        </mxCell>
        <mxCell id="TVG5I1HDKWepKC15KVvj-182" value="Input" style="swimlane;fontStyle=0;childLayout=stackLayout;horizontal=1;startSize=30;horizontalStack=0;resizeParent=1;resizeParentMax=0;resizeLast=0;collapsible=1;marginBottom=0;" parent="TVG5I1HDKWepKC15KVvj-161" vertex="1">
          <mxGeometry x="10" y="60" width="160" height="60" as="geometry" />
        </mxCell>
        <mxCell id="TVG5I1HDKWepKC15KVvj-183" value="BYOAI Network Structure" style="text;strokeColor=none;fillColor=none;align=left;verticalAlign=middle;spacingLeft=4;spacingRight=4;overflow=hidden;points=[[0,0.5],[1,0.5]];portConstraint=eastwest;rotatable=0;" parent="TVG5I1HDKWepKC15KVvj-182" vertex="1">
          <mxGeometry y="30" width="160" height="30" as="geometry" />
        </mxCell>
        <mxCell id="TVG5I1HDKWepKC15KVvj-185" value="" style="endArrow=classic;html=1;exitX=1;exitY=0;exitDx=0;exitDy=0;entryX=0;entryY=0.5;entryDx=0;entryDy=0;" parent="TVG5I1HDKWepKC15KVvj-161" source="TVG5I1HDKWepKC15KVvj-182" target="TVG5I1HDKWepKC15KVvj-169" edge="1">
          <mxGeometry width="50" height="50" relative="1" as="geometry">
            <mxPoint x="490" y="250" as="sourcePoint" />
            <mxPoint x="540" y="200" as="targetPoint" />
          </mxGeometry>
        </mxCell>
        <mxCell id="TVG5I1HDKWepKC15KVvj-164" value="Develop" style="swimlane;startSize=23;" parent="1" vertex="1">
          <mxGeometry x="157.5" y="3140" width="570" height="220" as="geometry" />
        </mxCell>
        <mxCell id="TVG5I1HDKWepKC15KVvj-260" value="Ops" style="ellipse;whiteSpace=wrap;html=1;aspect=fixed;" parent="TVG5I1HDKWepKC15KVvj-164" vertex="1">
          <mxGeometry x="250" y="70" width="80" height="80" as="geometry" />
        </mxCell>
        <mxCell id="TVG5I1HDKWepKC15KVvj-261" value="Output" style="swimlane;fontStyle=0;childLayout=stackLayout;horizontal=1;startSize=30;horizontalStack=0;resizeParent=1;resizeParentMax=0;resizeLast=0;collapsible=1;marginBottom=0;" parent="TVG5I1HDKWepKC15KVvj-164" vertex="1">
          <mxGeometry x="380" y="70" width="170" height="120" as="geometry" />
        </mxCell>
        <mxCell id="TVG5I1HDKWepKC15KVvj-262" value="Monitoring Tools (System Monitor)" style="text;strokeColor=none;fillColor=#D5E8D4;align=left;verticalAlign=middle;spacingLeft=4;spacingRight=4;overflow=hidden;points=[[0,0.5],[1,0.5]];portConstraint=eastwest;rotatable=0;" parent="TVG5I1HDKWepKC15KVvj-261" vertex="1">
          <mxGeometry y="30" width="170" height="30" as="geometry" />
        </mxCell>
        <mxCell id="TVG5I1HDKWepKC15KVvj-263" value="Deploy &amp; Upgrade Tools" style="text;strokeColor=none;fillColor=#D5E8D4;align=left;verticalAlign=middle;spacingLeft=4;spacingRight=4;overflow=hidden;points=[[0,0.5],[1,0.5]];portConstraint=eastwest;rotatable=0;" parent="TVG5I1HDKWepKC15KVvj-261" vertex="1">
          <mxGeometry y="60" width="170" height="30" as="geometry" />
        </mxCell>
        <mxCell id="TVG5I1HDKWepKC15KVvj-316" value="New Features (Superset)" style="text;strokeColor=none;fillColor=#FFFFFF;align=left;verticalAlign=middle;spacingLeft=4;spacingRight=4;overflow=hidden;points=[[0,0.5],[1,0.5]];portConstraint=eastwest;rotatable=0;" parent="TVG5I1HDKWepKC15KVvj-261" vertex="1">
          <mxGeometry y="90" width="170" height="30" as="geometry" />
        </mxCell>
        <mxCell id="TVG5I1HDKWepKC15KVvj-264" value="" style="endArrow=classic;html=1;exitX=1;exitY=0;exitDx=0;exitDy=0;entryX=0;entryY=0;entryDx=0;entryDy=0;" parent="TVG5I1HDKWepKC15KVvj-164" source="TVG5I1HDKWepKC15KVvj-260" target="TVG5I1HDKWepKC15KVvj-261" edge="1">
          <mxGeometry width="50" height="50" relative="1" as="geometry">
            <mxPoint x="710" y="20" as="sourcePoint" />
            <mxPoint x="760" y="-30" as="targetPoint" />
          </mxGeometry>
        </mxCell>
        <mxCell id="TVG5I1HDKWepKC15KVvj-266" value="Input" style="swimlane;fontStyle=0;childLayout=stackLayout;horizontal=1;startSize=30;horizontalStack=0;resizeParent=1;resizeParentMax=0;resizeLast=0;collapsible=1;marginBottom=0;" parent="TVG5I1HDKWepKC15KVvj-164" vertex="1">
          <mxGeometry x="20" y="65" width="170" height="60" as="geometry" />
        </mxCell>
        <mxCell id="TVG5I1HDKWepKC15KVvj-267" value="Dev Environment" style="text;strokeColor=none;fillColor=none;align=left;verticalAlign=middle;spacingLeft=4;spacingRight=4;overflow=hidden;points=[[0,0.5],[1,0.5]];portConstraint=eastwest;rotatable=0;" parent="TVG5I1HDKWepKC15KVvj-266" vertex="1">
          <mxGeometry y="30" width="170" height="30" as="geometry" />
        </mxCell>
        <mxCell id="TVG5I1HDKWepKC15KVvj-269" value="" style="endArrow=classic;html=1;exitX=1;exitY=0;exitDx=0;exitDy=0;entryX=0;entryY=0;entryDx=0;entryDy=0;" parent="TVG5I1HDKWepKC15KVvj-164" source="TVG5I1HDKWepKC15KVvj-266" target="TVG5I1HDKWepKC15KVvj-260" edge="1">
          <mxGeometry width="50" height="50" relative="1" as="geometry">
            <mxPoint x="590" y="-120" as="sourcePoint" />
            <mxPoint x="640" y="-170" as="targetPoint" />
          </mxGeometry>
        </mxCell>
        <mxCell id="TVG5I1HDKWepKC15KVvj-165" value="Monitring" style="swimlane;" parent="1" vertex="1">
          <mxGeometry x="870" y="2920" width="220" height="390" as="geometry" />
        </mxCell>
        <mxCell id="TVG5I1HDKWepKC15KVvj-212" value="Input" style="swimlane;fontStyle=0;childLayout=stackLayout;horizontal=1;startSize=30;horizontalStack=0;resizeParent=1;resizeParentMax=0;resizeLast=0;collapsible=1;marginBottom=0;" parent="TVG5I1HDKWepKC15KVvj-165" vertex="1">
          <mxGeometry x="40" y="40" width="160" height="60" as="geometry" />
        </mxCell>
        <mxCell id="TVG5I1HDKWepKC15KVvj-215" value="System Monitor" style="text;strokeColor=none;fillColor=#D5E8D4;align=left;verticalAlign=middle;spacingLeft=4;spacingRight=4;overflow=hidden;points=[[0,0.5],[1,0.5]];portConstraint=eastwest;rotatable=0;" parent="TVG5I1HDKWepKC15KVvj-212" vertex="1">
          <mxGeometry y="30" width="160" height="30" as="geometry" />
        </mxCell>
        <mxCell id="TVG5I1HDKWepKC15KVvj-218" value="System Monitor" style="ellipse;whiteSpace=wrap;html=1;aspect=fixed;" parent="TVG5I1HDKWepKC15KVvj-165" vertex="1">
          <mxGeometry x="80" y="140" width="80" height="80" as="geometry" />
        </mxCell>
        <mxCell id="TVG5I1HDKWepKC15KVvj-217" value="" style="endArrow=classic;html=1;exitX=0.5;exitY=1;exitDx=0;exitDy=0;" parent="TVG5I1HDKWepKC15KVvj-165" source="TVG5I1HDKWepKC15KVvj-212" target="TVG5I1HDKWepKC15KVvj-218" edge="1">
          <mxGeometry width="50" height="50" relative="1" as="geometry">
            <mxPoint x="190" y="40" as="sourcePoint" />
            <mxPoint x="260" y="90" as="targetPoint" />
          </mxGeometry>
        </mxCell>
        <mxCell id="TVG5I1HDKWepKC15KVvj-221" value="Output" style="swimlane;fontStyle=0;childLayout=stackLayout;horizontal=1;startSize=30;horizontalStack=0;resizeParent=1;resizeParentMax=0;resizeLast=0;collapsible=1;marginBottom=0;" parent="TVG5I1HDKWepKC15KVvj-165" vertex="1">
          <mxGeometry x="40" y="270" width="160" height="90" as="geometry" />
        </mxCell>
        <mxCell id="TVG5I1HDKWepKC15KVvj-222" value="System Metric" style="text;strokeColor=none;fillColor=#FFFFCC;align=left;verticalAlign=middle;spacingLeft=4;spacingRight=4;overflow=hidden;points=[[0,0.5],[1,0.5]];portConstraint=eastwest;rotatable=0;" parent="TVG5I1HDKWepKC15KVvj-221" vertex="1">
          <mxGeometry y="30" width="160" height="30" as="geometry" />
        </mxCell>
        <mxCell id="TVG5I1HDKWepKC15KVvj-223" value="Runtime Issues" style="text;strokeColor=none;fillColor=none;align=left;verticalAlign=middle;spacingLeft=4;spacingRight=4;overflow=hidden;points=[[0,0.5],[1,0.5]];portConstraint=eastwest;rotatable=0;" parent="TVG5I1HDKWepKC15KVvj-221" vertex="1">
          <mxGeometry y="60" width="160" height="30" as="geometry" />
        </mxCell>
        <mxCell id="TVG5I1HDKWepKC15KVvj-219" value="" style="endArrow=classic;html=1;exitX=0.5;exitY=1;exitDx=0;exitDy=0;entryX=0.5;entryY=0;entryDx=0;entryDy=0;" parent="TVG5I1HDKWepKC15KVvj-165" source="TVG5I1HDKWepKC15KVvj-218" target="TVG5I1HDKWepKC15KVvj-221" edge="1">
          <mxGeometry width="50" height="50" relative="1" as="geometry">
            <mxPoint x="200" y="30" as="sourcePoint" />
            <mxPoint x="450" y="80" as="targetPoint" />
          </mxGeometry>
        </mxCell>
        <mxCell id="TVG5I1HDKWepKC15KVvj-166" value="Upgrade" style="swimlane;" parent="1" vertex="1">
          <mxGeometry x="1140" y="2800" width="575" height="210" as="geometry" />
        </mxCell>
        <mxCell id="TVG5I1HDKWepKC15KVvj-272" value="Ops" style="ellipse;whiteSpace=wrap;html=1;aspect=fixed;" parent="TVG5I1HDKWepKC15KVvj-166" vertex="1">
          <mxGeometry x="235" y="85" width="80" height="80" as="geometry" />
        </mxCell>
        <mxCell id="TVG5I1HDKWepKC15KVvj-273" value="Output" style="swimlane;fontStyle=0;childLayout=stackLayout;horizontal=1;startSize=30;horizontalStack=0;resizeParent=1;resizeParentMax=0;resizeLast=0;collapsible=1;marginBottom=0;" parent="TVG5I1HDKWepKC15KVvj-166" vertex="1">
          <mxGeometry x="335" y="80" width="220" height="90" as="geometry" />
        </mxCell>
        <mxCell id="TVG5I1HDKWepKC15KVvj-275" value="New Base BYOAI Env  (Client side)" style="text;strokeColor=none;fillColor=none;align=left;verticalAlign=middle;spacingLeft=4;spacingRight=4;overflow=hidden;points=[[0,0.5],[1,0.5]];portConstraint=eastwest;rotatable=0;" parent="TVG5I1HDKWepKC15KVvj-273" vertex="1">
          <mxGeometry y="30" width="220" height="30" as="geometry" />
        </mxCell>
        <mxCell id="TVG5I1HDKWepKC15KVvj-285" value="Upgrade Metric" style="text;strokeColor=none;fillColor=#FFFFCC;align=left;verticalAlign=middle;spacingLeft=4;spacingRight=4;overflow=hidden;points=[[0,0.5],[1,0.5]];portConstraint=eastwest;rotatable=0;" parent="TVG5I1HDKWepKC15KVvj-273" vertex="1">
          <mxGeometry y="60" width="220" height="30" as="geometry" />
        </mxCell>
        <mxCell id="TVG5I1HDKWepKC15KVvj-276" value="" style="endArrow=classic;html=1;exitX=1;exitY=0;exitDx=0;exitDy=0;entryX=0;entryY=0;entryDx=0;entryDy=0;" parent="TVG5I1HDKWepKC15KVvj-166" source="TVG5I1HDKWepKC15KVvj-272" target="TVG5I1HDKWepKC15KVvj-273" edge="1">
          <mxGeometry width="50" height="50" relative="1" as="geometry">
            <mxPoint x="510" y="-2895" as="sourcePoint" />
            <mxPoint x="560" y="-2945" as="targetPoint" />
          </mxGeometry>
        </mxCell>
        <mxCell id="TVG5I1HDKWepKC15KVvj-277" value="Input" style="swimlane;fontStyle=0;childLayout=stackLayout;horizontal=1;startSize=30;horizontalStack=0;resizeParent=1;resizeParentMax=0;resizeLast=0;collapsible=1;marginBottom=0;" parent="TVG5I1HDKWepKC15KVvj-166" vertex="1">
          <mxGeometry x="20" y="80" width="170" height="90" as="geometry" />
        </mxCell>
        <mxCell id="TVG5I1HDKWepKC15KVvj-280" value="Upgrade tools" style="text;strokeColor=none;fillColor=#D5E8D4;align=left;verticalAlign=middle;spacingLeft=4;spacingRight=4;overflow=hidden;points=[[0,0.5],[1,0.5]];portConstraint=eastwest;rotatable=0;" parent="TVG5I1HDKWepKC15KVvj-277" vertex="1">
          <mxGeometry y="30" width="170" height="30" as="geometry" />
        </mxCell>
        <mxCell id="y3xYMGwSDXPFTG1fiwFM-1" value="&#xa;Release Note" style="text;strokeColor=none;fillColor=#FFFFFF;align=left;verticalAlign=middle;spacingLeft=4;spacingRight=4;overflow=hidden;points=[[0,0.5],[1,0.5]];portConstraint=eastwest;rotatable=0;" parent="TVG5I1HDKWepKC15KVvj-277" vertex="1">
          <mxGeometry y="60" width="170" height="30" as="geometry" />
        </mxCell>
        <mxCell id="TVG5I1HDKWepKC15KVvj-279" value="" style="endArrow=classic;html=1;exitX=1;exitY=0;exitDx=0;exitDy=0;entryX=0;entryY=0;entryDx=0;entryDy=0;" parent="TVG5I1HDKWepKC15KVvj-166" source="TVG5I1HDKWepKC15KVvj-277" target="TVG5I1HDKWepKC15KVvj-272" edge="1">
          <mxGeometry width="50" height="50" relative="1" as="geometry">
            <mxPoint x="390" y="-3035" as="sourcePoint" />
            <mxPoint x="440" y="-3085" as="targetPoint" />
          </mxGeometry>
        </mxCell>
        <mxCell id="TVG5I1HDKWepKC15KVvj-167" value="Maintenance" style="swimlane;startSize=23;" parent="1" vertex="1">
          <mxGeometry x="1140" y="3060" width="550" height="310" as="geometry" />
        </mxCell>
        <mxCell id="TVG5I1HDKWepKC15KVvj-287" value="Input" style="swimlane;fontStyle=0;childLayout=stackLayout;horizontal=1;startSize=30;horizontalStack=0;resizeParent=1;resizeParentMax=0;resizeLast=0;collapsible=1;marginBottom=0;" parent="TVG5I1HDKWepKC15KVvj-167" vertex="1">
          <mxGeometry x="20" y="80" width="160" height="210" as="geometry" />
        </mxCell>
        <mxCell id="TVG5I1HDKWepKC15KVvj-288" value="Client Report Issue" style="text;strokeColor=none;fillColor=none;align=left;verticalAlign=middle;spacingLeft=4;spacingRight=4;overflow=hidden;points=[[0,0.5],[1,0.5]];portConstraint=eastwest;rotatable=0;" parent="TVG5I1HDKWepKC15KVvj-287" vertex="1">
          <mxGeometry y="30" width="160" height="30" as="geometry" />
        </mxCell>
        <mxCell id="TVG5I1HDKWepKC15KVvj-289" value="CS Team Report Issue" style="text;strokeColor=none;fillColor=none;align=left;verticalAlign=middle;spacingLeft=4;spacingRight=4;overflow=hidden;points=[[0,0.5],[1,0.5]];portConstraint=eastwest;rotatable=0;" parent="TVG5I1HDKWepKC15KVvj-287" vertex="1">
          <mxGeometry y="60" width="160" height="30" as="geometry" />
        </mxCell>
        <mxCell id="TVG5I1HDKWepKC15KVvj-296" value="Product report Issue" style="text;strokeColor=none;fillColor=none;align=left;verticalAlign=middle;spacingLeft=4;spacingRight=4;overflow=hidden;points=[[0,0.5],[1,0.5]];portConstraint=eastwest;rotatable=0;" parent="TVG5I1HDKWepKC15KVvj-287" vertex="1">
          <mxGeometry y="90" width="160" height="30" as="geometry" />
        </mxCell>
        <mxCell id="TVG5I1HDKWepKC15KVvj-297" value="Ops Report Issue" style="text;strokeColor=none;fillColor=none;align=left;verticalAlign=middle;spacingLeft=4;spacingRight=4;overflow=hidden;points=[[0,0.5],[1,0.5]];portConstraint=eastwest;rotatable=0;" parent="TVG5I1HDKWepKC15KVvj-287" vertex="1">
          <mxGeometry y="120" width="160" height="30" as="geometry" />
        </mxCell>
        <mxCell id="TVG5I1HDKWepKC15KVvj-298" value="System Monitor Report Issue" style="text;strokeColor=none;fillColor=none;align=left;verticalAlign=middle;spacingLeft=4;spacingRight=4;overflow=hidden;points=[[0,0.5],[1,0.5]];portConstraint=eastwest;rotatable=0;" parent="TVG5I1HDKWepKC15KVvj-287" vertex="1">
          <mxGeometry y="150" width="160" height="30" as="geometry" />
        </mxCell>
        <mxCell id="TVG5I1HDKWepKC15KVvj-299" value="DataTeam Report Issue" style="text;strokeColor=none;fillColor=none;align=left;verticalAlign=middle;spacingLeft=4;spacingRight=4;overflow=hidden;points=[[0,0.5],[1,0.5]];portConstraint=eastwest;rotatable=0;" parent="TVG5I1HDKWepKC15KVvj-287" vertex="1">
          <mxGeometry y="180" width="160" height="30" as="geometry" />
        </mxCell>
        <mxCell id="TVG5I1HDKWepKC15KVvj-290" value="Ops" style="ellipse;whiteSpace=wrap;html=1;aspect=fixed;" parent="TVG5I1HDKWepKC15KVvj-167" vertex="1">
          <mxGeometry x="230" y="70" width="80" height="80" as="geometry" />
        </mxCell>
        <mxCell id="TVG5I1HDKWepKC15KVvj-291" value="" style="endArrow=classic;html=1;exitX=1;exitY=0;exitDx=0;exitDy=0;" parent="TVG5I1HDKWepKC15KVvj-167" source="TVG5I1HDKWepKC15KVvj-287" target="TVG5I1HDKWepKC15KVvj-290" edge="1">
          <mxGeometry width="50" height="50" relative="1" as="geometry">
            <mxPoint x="-985" y="-2735" as="sourcePoint" />
            <mxPoint x="-915" y="-2685" as="targetPoint" />
          </mxGeometry>
        </mxCell>
        <mxCell id="TVG5I1HDKWepKC15KVvj-292" value="Output" style="swimlane;fontStyle=0;childLayout=stackLayout;horizontal=1;startSize=30;horizontalStack=0;resizeParent=1;resizeParentMax=0;resizeLast=0;collapsible=1;marginBottom=0;" parent="TVG5I1HDKWepKC15KVvj-167" vertex="1">
          <mxGeometry x="360" y="90" width="160" height="120" as="geometry" />
        </mxCell>
        <mxCell id="TVG5I1HDKWepKC15KVvj-293" value="Root Cause &amp; Solution" style="text;strokeColor=none;fillColor=#FFFFFF;align=left;verticalAlign=middle;spacingLeft=4;spacingRight=4;overflow=hidden;points=[[0,0.5],[1,0.5]];portConstraint=eastwest;rotatable=0;" parent="TVG5I1HDKWepKC15KVvj-292" vertex="1">
          <mxGeometry y="30" width="160" height="30" as="geometry" />
        </mxCell>
        <mxCell id="TVG5I1HDKWepKC15KVvj-294" value="Issue Metric" style="text;strokeColor=none;fillColor=#FFFFCC;align=left;verticalAlign=middle;spacingLeft=4;spacingRight=4;overflow=hidden;points=[[0,0.5],[1,0.5]];portConstraint=eastwest;rotatable=0;" parent="TVG5I1HDKWepKC15KVvj-292" vertex="1">
          <mxGeometry y="60" width="160" height="30" as="geometry" />
        </mxCell>
        <mxCell id="TVG5I1HDKWepKC15KVvj-313" value="Recovered BYOAI Env" style="text;strokeColor=none;fillColor=#FFFFFF;align=left;verticalAlign=middle;spacingLeft=4;spacingRight=4;overflow=hidden;points=[[0,0.5],[1,0.5]];portConstraint=eastwest;rotatable=0;" parent="TVG5I1HDKWepKC15KVvj-292" vertex="1">
          <mxGeometry y="90" width="160" height="30" as="geometry" />
        </mxCell>
        <mxCell id="TVG5I1HDKWepKC15KVvj-295" value="" style="endArrow=classic;html=1;exitX=1;exitY=0.5;exitDx=0;exitDy=0;entryX=0;entryY=0;entryDx=0;entryDy=0;" parent="TVG5I1HDKWepKC15KVvj-167" source="TVG5I1HDKWepKC15KVvj-290" target="TVG5I1HDKWepKC15KVvj-292" edge="1">
          <mxGeometry width="50" height="50" relative="1" as="geometry">
            <mxPoint x="-985" y="-2745" as="sourcePoint" />
            <mxPoint x="-735" y="-2695" as="targetPoint" />
          </mxGeometry>
        </mxCell>
        <mxCell id="TVG5I1HDKWepKC15KVvj-168" value="Integration" style="swimlane;startSize=23;" parent="1" vertex="1">
          <mxGeometry x="155" y="2840" width="575" height="280" as="geometry" />
        </mxCell>
        <mxCell id="TVG5I1HDKWepKC15KVvj-301" value="Ops" style="ellipse;whiteSpace=wrap;html=1;aspect=fixed;" parent="TVG5I1HDKWepKC15KVvj-168" vertex="1">
          <mxGeometry x="254" y="185" width="80" height="80" as="geometry" />
        </mxCell>
        <mxCell id="TVG5I1HDKWepKC15KVvj-302" value="Output" style="swimlane;fontStyle=0;childLayout=stackLayout;horizontal=1;startSize=30;horizontalStack=0;resizeParent=1;resizeParentMax=0;resizeLast=0;collapsible=1;marginBottom=0;" parent="TVG5I1HDKWepKC15KVvj-168" vertex="1">
          <mxGeometry x="346.5" y="185" width="170" height="60" as="geometry" />
        </mxCell>
        <mxCell id="TVG5I1HDKWepKC15KVvj-318" value="New Features" style="text;strokeColor=none;fillColor=none;align=left;verticalAlign=middle;spacingLeft=4;spacingRight=4;overflow=hidden;points=[[0,0.5],[1,0.5]];portConstraint=eastwest;rotatable=0;" parent="TVG5I1HDKWepKC15KVvj-302" vertex="1">
          <mxGeometry y="30" width="170" height="30" as="geometry" />
        </mxCell>
        <mxCell id="TVG5I1HDKWepKC15KVvj-305" value="" style="endArrow=classic;html=1;exitX=1;exitY=0;exitDx=0;exitDy=0;entryX=0;entryY=0;entryDx=0;entryDy=0;" parent="TVG5I1HDKWepKC15KVvj-168" source="TVG5I1HDKWepKC15KVvj-301" target="TVG5I1HDKWepKC15KVvj-302" edge="1">
          <mxGeometry width="50" height="50" relative="1" as="geometry">
            <mxPoint x="515" y="-3255" as="sourcePoint" />
            <mxPoint x="565" y="-3305" as="targetPoint" />
          </mxGeometry>
        </mxCell>
        <mxCell id="TVG5I1HDKWepKC15KVvj-306" value="Input" style="swimlane;fontStyle=0;childLayout=stackLayout;horizontal=1;startSize=30;horizontalStack=0;resizeParent=1;resizeParentMax=0;resizeLast=0;collapsible=1;marginBottom=0;" parent="TVG5I1HDKWepKC15KVvj-168" vertex="1">
          <mxGeometry x="24" y="155" width="170" height="90" as="geometry" />
        </mxCell>
        <mxCell id="TVG5I1HDKWepKC15KVvj-307" value="Client requirement" style="text;strokeColor=none;fillColor=none;align=left;verticalAlign=middle;spacingLeft=4;spacingRight=4;overflow=hidden;points=[[0,0.5],[1,0.5]];portConstraint=eastwest;rotatable=0;" parent="TVG5I1HDKWepKC15KVvj-306" vertex="1">
          <mxGeometry y="30" width="170" height="30" as="geometry" />
        </mxCell>
        <mxCell id="TVG5I1HDKWepKC15KVvj-319" value="Clients Data" style="text;strokeColor=none;fillColor=none;align=left;verticalAlign=middle;spacingLeft=4;spacingRight=4;overflow=hidden;points=[[0,0.5],[1,0.5]];portConstraint=eastwest;rotatable=0;" parent="TVG5I1HDKWepKC15KVvj-306" vertex="1">
          <mxGeometry y="60" width="170" height="30" as="geometry" />
        </mxCell>
        <mxCell id="TVG5I1HDKWepKC15KVvj-308" value="" style="endArrow=classic;html=1;exitX=1;exitY=0;exitDx=0;exitDy=0;entryX=0;entryY=0;entryDx=0;entryDy=0;" parent="TVG5I1HDKWepKC15KVvj-168" source="TVG5I1HDKWepKC15KVvj-306" target="TVG5I1HDKWepKC15KVvj-301" edge="1">
          <mxGeometry width="50" height="50" relative="1" as="geometry">
            <mxPoint x="404" y="-3295" as="sourcePoint" />
            <mxPoint x="454" y="-3345" as="targetPoint" />
          </mxGeometry>
        </mxCell>
        <mxCell id="TVG5I1HDKWepKC15KVvj-320" value="Client IT" style="ellipse;whiteSpace=wrap;html=1;aspect=fixed;" parent="TVG5I1HDKWepKC15KVvj-168" vertex="1">
          <mxGeometry x="245" y="75" width="80" height="80" as="geometry" />
        </mxCell>
        <mxCell id="TVG5I1HDKWepKC15KVvj-321" value="Output" style="swimlane;fontStyle=0;childLayout=stackLayout;horizontal=1;startSize=30;horizontalStack=0;resizeParent=1;resizeParentMax=0;resizeLast=0;collapsible=1;marginBottom=0;" parent="TVG5I1HDKWepKC15KVvj-168" vertex="1">
          <mxGeometry x="345" y="75" width="215" height="60" as="geometry" />
        </mxCell>
        <mxCell id="TVG5I1HDKWepKC15KVvj-322" value="Clients Data (MES Data, Service IP)" style="text;strokeColor=none;fillColor=none;align=left;verticalAlign=middle;spacingLeft=4;spacingRight=4;overflow=hidden;points=[[0,0.5],[1,0.5]];portConstraint=eastwest;rotatable=0;" parent="TVG5I1HDKWepKC15KVvj-321" vertex="1">
          <mxGeometry y="30" width="215" height="30" as="geometry" />
        </mxCell>
        <mxCell id="TVG5I1HDKWepKC15KVvj-323" value="" style="endArrow=classic;html=1;exitX=1;exitY=0;exitDx=0;exitDy=0;entryX=0;entryY=0;entryDx=0;entryDy=0;" parent="TVG5I1HDKWepKC15KVvj-168" source="TVG5I1HDKWepKC15KVvj-320" target="TVG5I1HDKWepKC15KVvj-321" edge="1">
          <mxGeometry width="50" height="50" relative="1" as="geometry">
            <mxPoint x="352.5" y="-6255" as="sourcePoint" />
            <mxPoint x="402.5" y="-6305" as="targetPoint" />
          </mxGeometry>
        </mxCell>
        <mxCell id="TVG5I1HDKWepKC15KVvj-324" value="Input" style="swimlane;fontStyle=0;childLayout=stackLayout;horizontal=1;startSize=30;horizontalStack=0;resizeParent=1;resizeParentMax=0;resizeLast=0;collapsible=1;marginBottom=0;" parent="TVG5I1HDKWepKC15KVvj-168" vertex="1">
          <mxGeometry x="15" y="70" width="170" height="60" as="geometry" />
        </mxCell>
        <mxCell id="TVG5I1HDKWepKC15KVvj-325" value="API Specification" style="text;strokeColor=none;fillColor=none;align=left;verticalAlign=middle;spacingLeft=4;spacingRight=4;overflow=hidden;points=[[0,0.5],[1,0.5]];portConstraint=eastwest;rotatable=0;" parent="TVG5I1HDKWepKC15KVvj-324" vertex="1">
          <mxGeometry y="30" width="170" height="30" as="geometry" />
        </mxCell>
        <mxCell id="TVG5I1HDKWepKC15KVvj-327" value="" style="endArrow=classic;html=1;exitX=1;exitY=0;exitDx=0;exitDy=0;entryX=0;entryY=0;entryDx=0;entryDy=0;" parent="TVG5I1HDKWepKC15KVvj-168" source="TVG5I1HDKWepKC15KVvj-324" target="TVG5I1HDKWepKC15KVvj-320" edge="1">
          <mxGeometry width="50" height="50" relative="1" as="geometry">
            <mxPoint x="240" y="-6245" as="sourcePoint" />
            <mxPoint x="290" y="-6295" as="targetPoint" />
          </mxGeometry>
        </mxCell>
        <mxCell id="TVG5I1HDKWepKC15KVvj-176" value="" style="endArrow=classic;html=1;exitX=1;exitY=0.5;exitDx=0;exitDy=0;entryX=0;entryY=0.5;entryDx=0;entryDy=0;" parent="1" source="TVG5I1HDKWepKC15KVvj-250" target="TVG5I1HDKWepKC15KVvj-177" edge="1">
          <mxGeometry width="50" height="50" relative="1" as="geometry">
            <mxPoint x="629.9999999999995" y="2675" as="sourcePoint" />
            <mxPoint x="660" y="2180" as="targetPoint" />
          </mxGeometry>
        </mxCell>
        <mxCell id="TVG5I1HDKWepKC15KVvj-177" value="Data Team" style="ellipse;whiteSpace=wrap;html=1;aspect=fixed;" parent="1" vertex="1">
          <mxGeometry x="740" y="2400" width="80" height="80" as="geometry" />
        </mxCell>
        <mxCell id="TVG5I1HDKWepKC15KVvj-188" value="Machine Base Support" style="swimlane;" parent="1" vertex="1">
          <mxGeometry x="160" y="2500" width="540" height="320" as="geometry" />
        </mxCell>
        <mxCell id="TVG5I1HDKWepKC15KVvj-189" value="Supplier" style="ellipse;whiteSpace=wrap;html=1;aspect=fixed;" parent="TVG5I1HDKWepKC15KVvj-188" vertex="1">
          <mxGeometry x="215" y="30" width="80" height="80" as="geometry" />
        </mxCell>
        <mxCell id="TVG5I1HDKWepKC15KVvj-190" value="Output" style="swimlane;fontStyle=0;childLayout=stackLayout;horizontal=1;startSize=30;horizontalStack=0;resizeParent=1;resizeParentMax=0;resizeLast=0;collapsible=1;marginBottom=0;" parent="TVG5I1HDKWepKC15KVvj-188" vertex="1">
          <mxGeometry x="365" y="65" width="160" height="60" as="geometry" />
        </mxCell>
        <mxCell id="TVG5I1HDKWepKC15KVvj-191" value="Base BYOAI Machine Env" style="text;strokeColor=none;fillColor=none;align=left;verticalAlign=middle;spacingLeft=4;spacingRight=4;overflow=hidden;points=[[0,0.5],[1,0.5]];portConstraint=eastwest;rotatable=0;" parent="TVG5I1HDKWepKC15KVvj-190" vertex="1">
          <mxGeometry y="30" width="160" height="30" as="geometry" />
        </mxCell>
        <mxCell id="TVG5I1HDKWepKC15KVvj-193" value="" style="endArrow=classic;html=1;exitX=1;exitY=0.5;exitDx=0;exitDy=0;entryX=0;entryY=0;entryDx=0;entryDy=0;" parent="TVG5I1HDKWepKC15KVvj-188" source="TVG5I1HDKWepKC15KVvj-189" target="TVG5I1HDKWepKC15KVvj-190" edge="1">
          <mxGeometry width="50" height="50" relative="1" as="geometry">
            <mxPoint x="570" y="250" as="sourcePoint" />
            <mxPoint x="342" y="60" as="targetPoint" />
          </mxGeometry>
        </mxCell>
        <mxCell id="TVG5I1HDKWepKC15KVvj-194" value="Input" style="swimlane;fontStyle=0;childLayout=stackLayout;horizontal=1;startSize=30;horizontalStack=0;resizeParent=1;resizeParentMax=0;resizeLast=0;collapsible=1;marginBottom=0;" parent="TVG5I1HDKWepKC15KVvj-188" vertex="1">
          <mxGeometry x="15" y="65" width="160" height="60" as="geometry" />
        </mxCell>
        <mxCell id="TVG5I1HDKWepKC15KVvj-195" value="Server Specification &amp; OS" style="text;strokeColor=none;fillColor=none;align=left;verticalAlign=middle;spacingLeft=4;spacingRight=4;overflow=hidden;points=[[0,0.5],[1,0.5]];portConstraint=eastwest;rotatable=0;" parent="TVG5I1HDKWepKC15KVvj-194" vertex="1">
          <mxGeometry y="30" width="160" height="30" as="geometry" />
        </mxCell>
        <mxCell id="TVG5I1HDKWepKC15KVvj-196" value="" style="endArrow=classic;html=1;exitX=1;exitY=0;exitDx=0;exitDy=0;entryX=0;entryY=0.5;entryDx=0;entryDy=0;" parent="TVG5I1HDKWepKC15KVvj-188" source="TVG5I1HDKWepKC15KVvj-194" target="TVG5I1HDKWepKC15KVvj-189" edge="1">
          <mxGeometry width="50" height="50" relative="1" as="geometry">
            <mxPoint x="490" y="250" as="sourcePoint" />
            <mxPoint x="540" y="200" as="targetPoint" />
          </mxGeometry>
        </mxCell>
        <mxCell id="TVG5I1HDKWepKC15KVvj-241" value="Input" style="swimlane;fontStyle=0;childLayout=stackLayout;horizontal=1;startSize=30;horizontalStack=0;resizeParent=1;resizeParentMax=0;resizeLast=0;collapsible=1;marginBottom=0;" parent="TVG5I1HDKWepKC15KVvj-188" vertex="1">
          <mxGeometry x="5" y="160" width="170" height="120" as="geometry" />
        </mxCell>
        <mxCell id="TVG5I1HDKWepKC15KVvj-249" value="Factory side installation guide" style="text;strokeColor=none;fillColor=none;align=left;verticalAlign=middle;spacingLeft=4;spacingRight=4;overflow=hidden;points=[[0,0.5],[1,0.5]];portConstraint=eastwest;rotatable=0;" parent="TVG5I1HDKWepKC15KVvj-241" vertex="1">
          <mxGeometry y="30" width="170" height="30" as="geometry" />
        </mxCell>
        <mxCell id="TVG5I1HDKWepKC15KVvj-251" value="Base BYOAI Env Machine" style="text;strokeColor=none;fillColor=none;align=left;verticalAlign=middle;spacingLeft=4;spacingRight=4;overflow=hidden;points=[[0,0.5],[1,0.5]];portConstraint=eastwest;rotatable=0;" parent="TVG5I1HDKWepKC15KVvj-241" vertex="1">
          <mxGeometry y="60" width="170" height="30" as="geometry" />
        </mxCell>
        <mxCell id="TVG5I1HDKWepKC15KVvj-256" value="Remote Access Method" style="text;strokeColor=none;fillColor=none;align=left;verticalAlign=middle;spacingLeft=4;spacingRight=4;overflow=hidden;points=[[0,0.5],[1,0.5]];portConstraint=eastwest;rotatable=0;" parent="TVG5I1HDKWepKC15KVvj-241" vertex="1">
          <mxGeometry y="90" width="170" height="30" as="geometry" />
        </mxCell>
        <mxCell id="TVG5I1HDKWepKC15KVvj-243" value="Vendor&lt;br&gt;Ops" style="ellipse;whiteSpace=wrap;html=1;aspect=fixed;" parent="TVG5I1HDKWepKC15KVvj-188" vertex="1">
          <mxGeometry x="210" y="200" width="80" height="80" as="geometry" />
        </mxCell>
        <mxCell id="TVG5I1HDKWepKC15KVvj-244" value="" style="endArrow=classic;html=1;exitX=1;exitY=0;exitDx=0;exitDy=0;entryX=-0.038;entryY=0.368;entryDx=0;entryDy=0;entryPerimeter=0;" parent="TVG5I1HDKWepKC15KVvj-188" source="TVG5I1HDKWepKC15KVvj-241" target="TVG5I1HDKWepKC15KVvj-243" edge="1">
          <mxGeometry width="50" height="50" relative="1" as="geometry">
            <mxPoint x="740" y="220" as="sourcePoint" />
            <mxPoint x="220" y="150" as="targetPoint" />
          </mxGeometry>
        </mxCell>
        <mxCell id="TVG5I1HDKWepKC15KVvj-245" value="Output" style="swimlane;fontStyle=0;childLayout=stackLayout;horizontal=1;startSize=30;horizontalStack=0;resizeParent=1;resizeParentMax=0;resizeLast=0;collapsible=1;marginBottom=0;" parent="TVG5I1HDKWepKC15KVvj-188" vertex="1">
          <mxGeometry x="350" y="210" width="170" height="60" as="geometry" />
        </mxCell>
        <mxCell id="TVG5I1HDKWepKC15KVvj-246" value="Base BYOAI Env (Client Side)" style="text;strokeColor=none;fillColor=none;align=left;verticalAlign=middle;spacingLeft=4;spacingRight=4;overflow=hidden;points=[[0,0.5],[1,0.5]];portConstraint=eastwest;rotatable=0;" parent="TVG5I1HDKWepKC15KVvj-245" vertex="1">
          <mxGeometry y="30" width="170" height="30" as="geometry" />
        </mxCell>
        <mxCell id="TVG5I1HDKWepKC15KVvj-247" value="" style="endArrow=classic;html=1;exitX=1.005;exitY=0.387;exitDx=0;exitDy=0;exitPerimeter=0;entryX=0;entryY=0;entryDx=0;entryDy=0;" parent="TVG5I1HDKWepKC15KVvj-188" source="TVG5I1HDKWepKC15KVvj-243" target="TVG5I1HDKWepKC15KVvj-245" edge="1">
          <mxGeometry width="50" height="50" relative="1" as="geometry">
            <mxPoint x="740" y="290" as="sourcePoint" />
            <mxPoint x="320" y="290" as="targetPoint" />
          </mxGeometry>
        </mxCell>
        <mxCell id="TVG5I1HDKWepKC15KVvj-224" value="" style="endArrow=classic;html=1;exitX=1;exitY=0.5;exitDx=0;exitDy=0;" parent="1" source="TVG5I1HDKWepKC15KVvj-246" target="TVG5I1HDKWepKC15KVvj-225" edge="1">
          <mxGeometry width="50" height="50" relative="1" as="geometry">
            <mxPoint x="870" y="2810" as="sourcePoint" />
            <mxPoint x="1270" y="2530" as="targetPoint" />
          </mxGeometry>
        </mxCell>
        <mxCell id="TVG5I1HDKWepKC15KVvj-225" value="Client (User)&lt;br&gt;CS Team" style="ellipse;whiteSpace=wrap;html=1;aspect=fixed;fillColor=#FF9999;" parent="1" vertex="1">
          <mxGeometry x="840" y="2710" width="80" height="80" as="geometry" />
        </mxCell>
        <mxCell id="TVG5I1HDKWepKC15KVvj-163" value="Deploy" style="swimlane;" parent="1" vertex="1">
          <mxGeometry x="1215" y="2310" width="205" height="420" as="geometry" />
        </mxCell>
        <mxCell id="TVG5I1HDKWepKC15KVvj-198" value="Ops Engineer" style="ellipse;whiteSpace=wrap;html=1;aspect=fixed;" parent="TVG5I1HDKWepKC15KVvj-163" vertex="1">
          <mxGeometry x="62.5" y="215" width="80" height="80" as="geometry" />
        </mxCell>
        <mxCell id="TVG5I1HDKWepKC15KVvj-199" value="Input" style="swimlane;fontStyle=0;childLayout=stackLayout;horizontal=1;startSize=30;horizontalStack=0;resizeParent=1;resizeParentMax=0;resizeLast=0;collapsible=1;marginBottom=0;" parent="TVG5I1HDKWepKC15KVvj-163" vertex="1">
          <mxGeometry x="22.5" y="30" width="160" height="150" as="geometry" />
        </mxCell>
        <mxCell id="TVG5I1HDKWepKC15KVvj-200" value="Client Network Info" style="text;strokeColor=none;fillColor=none;align=left;verticalAlign=middle;spacingLeft=4;spacingRight=4;overflow=hidden;points=[[0,0.5],[1,0.5]];portConstraint=eastwest;rotatable=0;" parent="TVG5I1HDKWepKC15KVvj-199" vertex="1">
          <mxGeometry y="30" width="160" height="30" as="geometry" />
        </mxCell>
        <mxCell id="TVG5I1HDKWepKC15KVvj-203" value="Base BYOAI Machine Env" style="text;strokeColor=none;fillColor=none;align=left;verticalAlign=middle;spacingLeft=4;spacingRight=4;overflow=hidden;points=[[0,0.5],[1,0.5]];portConstraint=eastwest;rotatable=0;" parent="TVG5I1HDKWepKC15KVvj-199" vertex="1">
          <mxGeometry y="60" width="160" height="30" as="geometry" />
        </mxCell>
        <mxCell id="TVG5I1HDKWepKC15KVvj-205" value="Auto Deploy Script" style="text;strokeColor=none;fillColor=#D5E8D4;align=left;verticalAlign=middle;spacingLeft=4;spacingRight=4;overflow=hidden;points=[[0,0.5],[1,0.5]];portConstraint=eastwest;rotatable=0;" parent="TVG5I1HDKWepKC15KVvj-199" vertex="1">
          <mxGeometry y="90" width="160" height="30" as="geometry" />
        </mxCell>
        <mxCell id="TVG5I1HDKWepKC15KVvj-211" value="Remote Access Func" style="text;strokeColor=none;fillColor=none;align=left;verticalAlign=middle;spacingLeft=4;spacingRight=4;overflow=hidden;points=[[0,0.5],[1,0.5]];portConstraint=eastwest;rotatable=0;" parent="TVG5I1HDKWepKC15KVvj-199" vertex="1">
          <mxGeometry y="120" width="160" height="30" as="geometry" />
        </mxCell>
        <mxCell id="TVG5I1HDKWepKC15KVvj-204" value="" style="endArrow=classic;html=1;exitX=0.496;exitY=1.088;exitDx=0;exitDy=0;entryX=0.5;entryY=0;entryDx=0;entryDy=0;exitPerimeter=0;" parent="TVG5I1HDKWepKC15KVvj-163" source="TVG5I1HDKWepKC15KVvj-211" target="TVG5I1HDKWepKC15KVvj-198" edge="1">
          <mxGeometry width="50" height="50" relative="1" as="geometry">
            <mxPoint x="190" y="-70" as="sourcePoint" />
            <mxPoint x="240" y="-120" as="targetPoint" />
          </mxGeometry>
        </mxCell>
        <mxCell id="TVG5I1HDKWepKC15KVvj-206" value="Output" style="swimlane;fontStyle=0;childLayout=stackLayout;horizontal=1;startSize=30;horizontalStack=0;resizeParent=1;resizeParentMax=0;resizeLast=0;collapsible=1;marginBottom=0;" parent="TVG5I1HDKWepKC15KVvj-163" vertex="1">
          <mxGeometry x="22.5" y="315" width="160" height="90" as="geometry" />
        </mxCell>
        <mxCell id="TVG5I1HDKWepKC15KVvj-208" value="Base BYOAI Env Machine" style="text;strokeColor=none;fillColor=none;align=left;verticalAlign=middle;spacingLeft=4;spacingRight=4;overflow=hidden;points=[[0,0.5],[1,0.5]];portConstraint=eastwest;rotatable=0;" parent="TVG5I1HDKWepKC15KVvj-206" vertex="1">
          <mxGeometry y="30" width="160" height="30" as="geometry" />
        </mxCell>
        <mxCell id="TVG5I1HDKWepKC15KVvj-265" value="Deploy metric" style="text;strokeColor=none;fillColor=#FFFFCC;align=left;verticalAlign=middle;spacingLeft=4;spacingRight=4;overflow=hidden;points=[[0,0.5],[1,0.5]];portConstraint=eastwest;rotatable=0;" parent="TVG5I1HDKWepKC15KVvj-206" vertex="1">
          <mxGeometry y="60" width="160" height="30" as="geometry" />
        </mxCell>
        <mxCell id="TVG5I1HDKWepKC15KVvj-210" value="" style="endArrow=classic;html=1;exitX=0.5;exitY=1;exitDx=0;exitDy=0;entryX=0.5;entryY=0;entryDx=0;entryDy=0;" parent="TVG5I1HDKWepKC15KVvj-163" source="TVG5I1HDKWepKC15KVvj-198" target="TVG5I1HDKWepKC15KVvj-206" edge="1">
          <mxGeometry width="50" height="50" relative="1" as="geometry">
            <mxPoint x="50" y="90" as="sourcePoint" />
            <mxPoint x="100" y="40" as="targetPoint" />
          </mxGeometry>
        </mxCell>
        <mxCell id="TVG5I1HDKWepKC15KVvj-257" value="" style="endArrow=classic;html=1;exitX=0.994;exitY=0.121;exitDx=0;exitDy=0;exitPerimeter=0;entryX=0.006;entryY=0.11;entryDx=0;entryDy=0;entryPerimeter=0;" parent="1" source="TVG5I1HDKWepKC15KVvj-171" target="TVG5I1HDKWepKC15KVvj-199" edge="1">
          <mxGeometry width="50" height="50" relative="1" as="geometry">
            <mxPoint x="830" y="2500" as="sourcePoint" />
            <mxPoint x="880" y="2450" as="targetPoint" />
          </mxGeometry>
        </mxCell>
        <mxCell id="TVG5I1HDKWepKC15KVvj-258" value="" style="endArrow=classic;html=1;exitX=1;exitY=0.25;exitDx=0;exitDy=0;entryX=0.006;entryY=0.085;entryDx=0;entryDy=0;entryPerimeter=0;" parent="1" source="TVG5I1HDKWepKC15KVvj-190" target="TVG5I1HDKWepKC15KVvj-199" edge="1">
          <mxGeometry width="50" height="50" relative="1" as="geometry">
            <mxPoint x="830" y="2500" as="sourcePoint" />
            <mxPoint x="880" y="2450" as="targetPoint" />
          </mxGeometry>
        </mxCell>
        <mxCell id="TVG5I1HDKWepKC15KVvj-259" value="" style="endArrow=classic;html=1;exitX=0;exitY=0.25;exitDx=0;exitDy=0;entryX=1;entryY=0;entryDx=0;entryDy=0;" parent="1" source="TVG5I1HDKWepKC15KVvj-206" target="TVG5I1HDKWepKC15KVvj-241" edge="1">
          <mxGeometry width="50" height="50" relative="1" as="geometry">
            <mxPoint x="830" y="2500" as="sourcePoint" />
            <mxPoint x="880" y="2450" as="targetPoint" />
          </mxGeometry>
        </mxCell>
        <mxCell id="TVG5I1HDKWepKC15KVvj-281" value="" style="endArrow=classic;html=1;exitX=1;exitY=0.5;exitDx=0;exitDy=0;entryX=1;entryY=0.5;entryDx=0;entryDy=0;" parent="1" source="TVG5I1HDKWepKC15KVvj-275" target="TVG5I1HDKWepKC15KVvj-225" edge="1">
          <mxGeometry width="50" height="50" relative="1" as="geometry">
            <mxPoint x="790" y="3300" as="sourcePoint" />
            <mxPoint x="770" y="3510" as="targetPoint" />
            <Array as="points">
              <mxPoint x="1740" y="2925" />
              <mxPoint x="1700" y="2770" />
            </Array>
          </mxGeometry>
        </mxCell>
        <mxCell id="TVG5I1HDKWepKC15KVvj-315" value="" style="endArrow=classic;html=1;exitX=1;exitY=0.5;exitDx=0;exitDy=0;entryX=1;entryY=0.5;entryDx=0;entryDy=0;" parent="1" source="TVG5I1HDKWepKC15KVvj-313" target="TVG5I1HDKWepKC15KVvj-225" edge="1">
          <mxGeometry width="50" height="50" relative="1" as="geometry">
            <mxPoint x="910" y="3230" as="sourcePoint" />
            <mxPoint x="1760" y="2690" as="targetPoint" />
            <Array as="points">
              <mxPoint x="1780" y="3210" />
              <mxPoint x="1720" y="2750" />
            </Array>
          </mxGeometry>
        </mxCell>
        <mxCell id="TVG5I1HDKWepKC15KVvj-317" value="" style="endArrow=classic;html=1;exitX=1;exitY=0.5;exitDx=0;exitDy=0;entryX=0.5;entryY=1;entryDx=0;entryDy=0;" parent="1" source="TVG5I1HDKWepKC15KVvj-316" target="TVG5I1HDKWepKC15KVvj-225" edge="1">
          <mxGeometry width="50" height="50" relative="1" as="geometry">
            <mxPoint x="910" y="3230" as="sourcePoint" />
            <mxPoint x="960" y="3180" as="targetPoint" />
            <Array as="points">
              <mxPoint x="800" y="3280" />
            </Array>
          </mxGeometry>
        </mxCell>
        <mxCell id="TVG5I1HDKWepKC15KVvj-328" value="" style="endArrow=classic;html=1;exitX=1;exitY=0.5;exitDx=0;exitDy=0;entryX=0.5;entryY=1;entryDx=0;entryDy=0;" parent="1" source="TVG5I1HDKWepKC15KVvj-318" target="TVG5I1HDKWepKC15KVvj-225" edge="1">
          <mxGeometry width="50" height="50" relative="1" as="geometry">
            <mxPoint x="910" y="2920" as="sourcePoint" />
            <mxPoint x="960" y="2870" as="targetPoint" />
            <Array as="points">
              <mxPoint x="790" y="3070" />
            </Array>
          </mxGeometry>
        </mxCell>
        <mxCell id="TVG5I1HDKWepKC15KVvj-330" value="" style="endArrow=classic;html=1;exitX=1;exitY=0;exitDx=0;exitDy=0;entryX=0;entryY=0;entryDx=0;entryDy=0;" parent="1" source="TVG5I1HDKWepKC15KVvj-221" target="TVG5I1HDKWepKC15KVvj-287" edge="1">
          <mxGeometry width="50" height="50" relative="1" as="geometry">
            <mxPoint x="800" y="2780" as="sourcePoint" />
            <mxPoint x="850" y="2730" as="targetPoint" />
          </mxGeometry>
        </mxCell>
        <mxCell id="TVG5I1HDKWepKC15KVvj-339" value="Action Items" style="swimlane;fontStyle=0;childLayout=stackLayout;horizontal=1;startSize=30;horizontalStack=0;resizeParent=1;resizeParentMax=0;resizeLast=0;collapsible=1;marginBottom=0;fillColor=#FFFFFF;" parent="1" vertex="1">
          <mxGeometry x="510" y="3530" width="730" height="210" as="geometry" />
        </mxCell>
        <mxCell id="TVG5I1HDKWepKC15KVvj-340" value="Target: deliver &amp; maintenance stable system as soon as possible, flexible to handle variety tasks." style="text;strokeColor=none;fillColor=none;align=left;verticalAlign=middle;spacingLeft=4;spacingRight=4;overflow=hidden;points=[[0,0.5],[1,0.5]];portConstraint=eastwest;rotatable=0;" parent="TVG5I1HDKWepKC15KVvj-339" vertex="1">
          <mxGeometry y="30" width="730" height="30" as="geometry" />
        </mxCell>
        <mxCell id="TVG5I1HDKWepKC15KVvj-341" value="Items" style="text;strokeColor=none;fillColor=none;align=left;verticalAlign=middle;spacingLeft=4;spacingRight=4;overflow=hidden;points=[[0,0.5],[1,0.5]];portConstraint=eastwest;rotatable=0;" parent="TVG5I1HDKWepKC15KVvj-339" vertex="1">
          <mxGeometry y="60" width="730" height="30" as="geometry" />
        </mxCell>
        <mxCell id="TVG5I1HDKWepKC15KVvj-342" value="1. Transparency: All tasks &amp; issues can find from slack, record (what it is, why is happen, how to solve) to document." style="text;strokeColor=none;fillColor=none;align=left;verticalAlign=middle;spacingLeft=4;spacingRight=4;overflow=hidden;points=[[0,0.5],[1,0.5]];portConstraint=eastwest;rotatable=0;" parent="TVG5I1HDKWepKC15KVvj-339" vertex="1">
          <mxGeometry y="90" width="730" height="30" as="geometry" />
        </mxCell>
        <mxCell id="TVG5I1HDKWepKC15KVvj-343" value="2. Measurable: Set metric for issue &amp; tasks (time period, scope)" style="text;strokeColor=none;fillColor=none;align=left;verticalAlign=middle;spacingLeft=4;spacingRight=4;overflow=hidden;points=[[0,0.5],[1,0.5]];portConstraint=eastwest;rotatable=0;" parent="TVG5I1HDKWepKC15KVvj-339" vertex="1">
          <mxGeometry y="120" width="730" height="30" as="geometry" />
        </mxCell>
        <mxCell id="TVG5I1HDKWepKC15KVvj-351" value="3. Feedback: System monitor, Retro" style="text;strokeColor=none;fillColor=none;align=left;verticalAlign=middle;spacingLeft=4;spacingRight=4;overflow=hidden;points=[[0,0.5],[1,0.5]];portConstraint=eastwest;rotatable=0;" parent="TVG5I1HDKWepKC15KVvj-339" vertex="1">
          <mxGeometry y="150" width="730" height="30" as="geometry" />
        </mxCell>
        <mxCell id="TVG5I1HDKWepKC15KVvj-344" value="4. Continuous Learning: Retrospective every two weeks. Technical sharing." style="text;strokeColor=none;fillColor=none;align=left;verticalAlign=middle;spacingLeft=4;spacingRight=4;overflow=hidden;points=[[0,0.5],[1,0.5]];portConstraint=eastwest;rotatable=0;" parent="TVG5I1HDKWepKC15KVvj-339" vertex="1">
          <mxGeometry y="180" width="730" height="30" as="geometry" />
        </mxCell>
        <mxCell id="TVG5I1HDKWepKC15KVvj-346" value="" style="endArrow=classic;html=1;exitX=0.5;exitY=1;exitDx=0;exitDy=0;entryX=0;entryY=0;entryDx=0;entryDy=0;" parent="1" source="TVG5I1HDKWepKC15KVvj-225" target="TVG5I1HDKWepKC15KVvj-287" edge="1">
          <mxGeometry width="50" height="50" relative="1" as="geometry">
            <mxPoint x="1220" y="2990" as="sourcePoint" />
            <mxPoint x="1240" y="3130" as="targetPoint" />
            <Array as="points">
              <mxPoint x="1110" y="2800" />
              <mxPoint x="1120" y="3120" />
            </Array>
          </mxGeometry>
        </mxCell>
        <mxCell id="y3xYMGwSDXPFTG1fiwFM-2" value="Product&amp;nbsp;" style="ellipse;whiteSpace=wrap;html=1;aspect=fixed;fillColor=#FFFFFF;" parent="1" vertex="1">
          <mxGeometry x="230" y="2160" width="80" height="80" as="geometry" />
        </mxCell>
        <mxCell id="y3xYMGwSDXPFTG1fiwFM-3" value="Operation" style="ellipse;whiteSpace=wrap;html=1;aspect=fixed;fillColor=#FFFFFF;" parent="1" vertex="1">
          <mxGeometry x="460" y="2160" width="80" height="80" as="geometry" />
        </mxCell>
        <mxCell id="nt3PVIeSVGHvHOstJinX-1" value="Deploy 3 * 38&lt;br&gt;Vendor support 2&amp;nbsp; * 38&lt;br&gt;Client support 3 * 38&lt;br&gt;sales support (poc, sales-demo)&lt;br&gt;&lt;br&gt;Upgrade: 12 * 2 * 5&lt;br&gt;Maintenance:&amp;nbsp; 2 * 52&lt;br&gt;&lt;br&gt;Develop(System monitor, superset, sanity_test, ): 5 * 50&lt;br&gt;Integration: 38 * 3" style="whiteSpace=wrap;html=1;aspect=fixed;" parent="1" vertex="1">
          <mxGeometry x="1150" y="1582.5" width="357.5" height="357.5" as="geometry" />
        </mxCell>
        <mxCell id="mAhLwM-1dZzHnAY642l9-2" value="Edge" style="swimlane;" vertex="1" parent="1">
          <mxGeometry x="3680" y="770" width="290" height="235" as="geometry" />
        </mxCell>
        <mxCell id="mAhLwM-1dZzHnAY642l9-3" value="X" style="rounded=1;whiteSpace=wrap;html=1;" vertex="1" parent="mAhLwM-1dZzHnAY642l9-2">
          <mxGeometry x="30" y="70" width="90" height="95" as="geometry" />
        </mxCell>
        <mxCell id="mAhLwM-1dZzHnAY642l9-9" value="Storm Server" style="rounded=1;whiteSpace=wrap;html=1;" vertex="1" parent="mAhLwM-1dZzHnAY642l9-2">
          <mxGeometry x="160" y="70" width="90" height="95" as="geometry" />
        </mxCell>
        <mxCell id="mAhLwM-1dZzHnAY642l9-29" value="" style="endArrow=classic;html=1;rounded=0;exitX=1;exitY=0.5;exitDx=0;exitDy=0;entryX=0;entryY=0.5;entryDx=0;entryDy=0;" edge="1" parent="mAhLwM-1dZzHnAY642l9-2" source="mAhLwM-1dZzHnAY642l9-3" target="mAhLwM-1dZzHnAY642l9-9">
          <mxGeometry width="50" height="50" relative="1" as="geometry">
            <mxPoint x="-360" y="30" as="sourcePoint" />
            <mxPoint x="-310" y="-20" as="targetPoint" />
          </mxGeometry>
        </mxCell>
        <mxCell id="mAhLwM-1dZzHnAY642l9-13" value="Cloud (Local Side)" style="swimlane;" vertex="1" parent="1">
          <mxGeometry x="2490" y="680" width="900" height="350" as="geometry" />
        </mxCell>
        <mxCell id="mAhLwM-1dZzHnAY642l9-8" value="Device Manager &lt;br&gt;(django)&lt;br&gt;(Ansible Inventory + config)" style="rounded=1;whiteSpace=wrap;html=1;" vertex="1" parent="mAhLwM-1dZzHnAY642l9-13">
          <mxGeometry x="690" y="47.5" width="185" height="60" as="geometry" />
        </mxCell>
        <mxCell id="mAhLwM-1dZzHnAY642l9-11" value="Deploy Manager &lt;br&gt;(Ansible-Playbook)" style="rounded=1;whiteSpace=wrap;html=1;" vertex="1" parent="mAhLwM-1dZzHnAY642l9-13">
          <mxGeometry x="690" y="152.5" width="185" height="60" as="geometry" />
        </mxCell>
        <mxCell id="mAhLwM-1dZzHnAY642l9-12" value="Release Agent&lt;br&gt;(google sheets + release script)&lt;br&gt;(auto upgrade)" style="rounded=1;whiteSpace=wrap;html=1;" vertex="1" parent="mAhLwM-1dZzHnAY642l9-13">
          <mxGeometry x="690" y="252.5" width="185" height="60" as="geometry" />
        </mxCell>
        <mxCell id="mAhLwM-1dZzHnAY642l9-35" value="version controll&lt;br&gt;(Gitlab)" style="rounded=1;whiteSpace=wrap;html=1;" vertex="1" parent="mAhLwM-1dZzHnAY642l9-13">
          <mxGeometry x="30" y="40" width="120" height="60" as="geometry" />
        </mxCell>
        <mxCell id="mAhLwM-1dZzHnAY642l9-43" value="Container Registy&lt;br&gt;(Gitlab)" style="rounded=1;whiteSpace=wrap;html=1;" vertex="1" parent="mAhLwM-1dZzHnAY642l9-13">
          <mxGeometry x="435" y="252.5" width="120" height="60" as="geometry" />
        </mxCell>
        <mxCell id="mAhLwM-1dZzHnAY642l9-44" value="Dev Environment" style="rounded=1;whiteSpace=wrap;html=1;" vertex="1" parent="mAhLwM-1dZzHnAY642l9-13">
          <mxGeometry x="30" y="150" width="120" height="60" as="geometry" />
        </mxCell>
        <mxCell id="mAhLwM-1dZzHnAY642l9-45" value="CI/CD Environment" style="rounded=1;whiteSpace=wrap;html=1;" vertex="1" parent="mAhLwM-1dZzHnAY642l9-13">
          <mxGeometry x="430" y="40" width="120" height="60" as="geometry" />
        </mxCell>
        <mxCell id="mAhLwM-1dZzHnAY642l9-47" value="" style="endArrow=classic;html=1;rounded=0;exitX=0.5;exitY=1;exitDx=0;exitDy=0;entryX=0.5;entryY=0;entryDx=0;entryDy=0;" edge="1" parent="mAhLwM-1dZzHnAY642l9-13" source="mAhLwM-1dZzHnAY642l9-8" target="mAhLwM-1dZzHnAY642l9-11">
          <mxGeometry width="50" height="50" relative="1" as="geometry">
            <mxPoint x="610" y="230" as="sourcePoint" />
            <mxPoint x="660" y="180" as="targetPoint" />
          </mxGeometry>
        </mxCell>
        <mxCell id="mAhLwM-1dZzHnAY642l9-48" value="" style="endArrow=classic;html=1;rounded=0;exitX=0.5;exitY=1;exitDx=0;exitDy=0;entryX=0.5;entryY=0;entryDx=0;entryDy=0;" edge="1" parent="mAhLwM-1dZzHnAY642l9-13" source="mAhLwM-1dZzHnAY642l9-11" target="mAhLwM-1dZzHnAY642l9-12">
          <mxGeometry width="50" height="50" relative="1" as="geometry">
            <mxPoint x="610" y="230" as="sourcePoint" />
            <mxPoint x="660" y="180" as="targetPoint" />
          </mxGeometry>
        </mxCell>
        <mxCell id="mAhLwM-1dZzHnAY642l9-49" value="" style="endArrow=classic;html=1;rounded=0;exitX=1;exitY=0.5;exitDx=0;exitDy=0;entryX=0;entryY=0.5;entryDx=0;entryDy=0;" edge="1" parent="mAhLwM-1dZzHnAY642l9-13" source="mAhLwM-1dZzHnAY642l9-43" target="mAhLwM-1dZzHnAY642l9-12">
          <mxGeometry width="50" height="50" relative="1" as="geometry">
            <mxPoint x="610" y="220" as="sourcePoint" />
            <mxPoint x="660" y="170" as="targetPoint" />
          </mxGeometry>
        </mxCell>
        <mxCell id="mAhLwM-1dZzHnAY642l9-50" value="Test Environment" style="rounded=1;whiteSpace=wrap;html=1;" vertex="1" parent="mAhLwM-1dZzHnAY642l9-13">
          <mxGeometry x="435" y="150" width="120" height="60" as="geometry" />
        </mxCell>
        <mxCell id="mAhLwM-1dZzHnAY642l9-51" value="Build Agent&lt;br&gt;(Jenkins)" style="rounded=1;whiteSpace=wrap;html=1;" vertex="1" parent="mAhLwM-1dZzHnAY642l9-13">
          <mxGeometry x="230" y="150" width="120" height="60" as="geometry" />
        </mxCell>
        <mxCell id="mAhLwM-1dZzHnAY642l9-52" value="" style="endArrow=classic;html=1;rounded=0;exitX=1;exitY=0.5;exitDx=0;exitDy=0;entryX=0;entryY=0.5;entryDx=0;entryDy=0;" edge="1" parent="mAhLwM-1dZzHnAY642l9-13" source="mAhLwM-1dZzHnAY642l9-51" target="mAhLwM-1dZzHnAY642l9-50">
          <mxGeometry width="50" height="50" relative="1" as="geometry">
            <mxPoint x="610" y="220" as="sourcePoint" />
            <mxPoint x="660" y="170" as="targetPoint" />
          </mxGeometry>
        </mxCell>
        <mxCell id="mAhLwM-1dZzHnAY642l9-53" value="" style="endArrow=classic;html=1;rounded=0;exitX=0.5;exitY=0;exitDx=0;exitDy=0;entryX=0;entryY=0.5;entryDx=0;entryDy=0;" edge="1" parent="mAhLwM-1dZzHnAY642l9-13" source="mAhLwM-1dZzHnAY642l9-51" target="mAhLwM-1dZzHnAY642l9-45">
          <mxGeometry width="50" height="50" relative="1" as="geometry">
            <mxPoint x="610" y="220" as="sourcePoint" />
            <mxPoint x="660" y="170" as="targetPoint" />
            <Array as="points">
              <mxPoint x="290" y="100" />
            </Array>
          </mxGeometry>
        </mxCell>
        <mxCell id="mAhLwM-1dZzHnAY642l9-54" value="" style="endArrow=classic;html=1;rounded=0;exitX=1;exitY=0.5;exitDx=0;exitDy=0;entryX=0;entryY=0.5;entryDx=0;entryDy=0;" edge="1" parent="mAhLwM-1dZzHnAY642l9-13" source="mAhLwM-1dZzHnAY642l9-35" target="mAhLwM-1dZzHnAY642l9-45">
          <mxGeometry width="50" height="50" relative="1" as="geometry">
            <mxPoint x="610" y="220" as="sourcePoint" />
            <mxPoint x="660" y="170" as="targetPoint" />
            <Array as="points" />
          </mxGeometry>
        </mxCell>
        <mxCell id="mAhLwM-1dZzHnAY642l9-55" value="" style="endArrow=classic;html=1;rounded=0;exitX=0;exitY=0.5;exitDx=0;exitDy=0;entryX=0.5;entryY=1;entryDx=0;entryDy=0;" edge="1" parent="mAhLwM-1dZzHnAY642l9-13" source="mAhLwM-1dZzHnAY642l9-43" target="mAhLwM-1dZzHnAY642l9-44">
          <mxGeometry width="50" height="50" relative="1" as="geometry">
            <mxPoint x="610" y="220" as="sourcePoint" />
            <mxPoint x="660" y="170" as="targetPoint" />
            <Array as="points">
              <mxPoint x="90" y="283" />
            </Array>
          </mxGeometry>
        </mxCell>
        <mxCell id="mAhLwM-1dZzHnAY642l9-56" value="" style="endArrow=classic;html=1;rounded=0;exitX=0.5;exitY=1;exitDx=0;exitDy=0;entryX=0.5;entryY=0;entryDx=0;entryDy=0;" edge="1" parent="mAhLwM-1dZzHnAY642l9-13" source="mAhLwM-1dZzHnAY642l9-35" target="mAhLwM-1dZzHnAY642l9-44">
          <mxGeometry width="50" height="50" relative="1" as="geometry">
            <mxPoint x="600" y="220" as="sourcePoint" />
            <mxPoint x="650" y="170" as="targetPoint" />
          </mxGeometry>
        </mxCell>
        <mxCell id="mAhLwM-1dZzHnAY642l9-57" value="" style="endArrow=classic;html=1;rounded=0;exitX=1;exitY=0.5;exitDx=0;exitDy=0;entryX=0;entryY=0.5;entryDx=0;entryDy=0;" edge="1" parent="mAhLwM-1dZzHnAY642l9-13" source="mAhLwM-1dZzHnAY642l9-45" target="mAhLwM-1dZzHnAY642l9-12">
          <mxGeometry width="50" height="50" relative="1" as="geometry">
            <mxPoint x="600" y="220" as="sourcePoint" />
            <mxPoint x="650" y="170" as="targetPoint" />
          </mxGeometry>
        </mxCell>
        <mxCell id="mAhLwM-1dZzHnAY642l9-60" value="" style="endArrow=classic;html=1;rounded=0;exitX=0.5;exitY=0;exitDx=0;exitDy=0;entryX=0.5;entryY=1;entryDx=0;entryDy=0;" edge="1" parent="mAhLwM-1dZzHnAY642l9-13" source="mAhLwM-1dZzHnAY642l9-43" target="mAhLwM-1dZzHnAY642l9-50">
          <mxGeometry width="50" height="50" relative="1" as="geometry">
            <mxPoint x="600" y="220" as="sourcePoint" />
            <mxPoint x="650" y="170" as="targetPoint" />
          </mxGeometry>
        </mxCell>
        <mxCell id="mAhLwM-1dZzHnAY642l9-14" value="" style="rounded=1;whiteSpace=wrap;html=1;" vertex="1" parent="1">
          <mxGeometry x="3635" y="568" width="380" height="150" as="geometry" />
        </mxCell>
        <mxCell id="mAhLwM-1dZzHnAY642l9-15" value="Camera" style="ellipse;whiteSpace=wrap;html=1;aspect=fixed;" vertex="1" parent="1">
          <mxGeometry x="3785" y="600" width="80" height="80" as="geometry" />
        </mxCell>
        <mxCell id="mAhLwM-1dZzHnAY642l9-16" value="Camera" style="ellipse;whiteSpace=wrap;html=1;aspect=fixed;" vertex="1" parent="1">
          <mxGeometry x="3660" y="600" width="80" height="80" as="geometry" />
        </mxCell>
        <mxCell id="mAhLwM-1dZzHnAY642l9-17" value="Camera" style="ellipse;whiteSpace=wrap;html=1;aspect=fixed;" vertex="1" parent="1">
          <mxGeometry x="3900" y="600" width="80" height="80" as="geometry" />
        </mxCell>
        <mxCell id="mAhLwM-1dZzHnAY642l9-18" value="" style="endArrow=classic;html=1;rounded=0;exitX=0.5;exitY=0;exitDx=0;exitDy=0;entryX=0.5;entryY=1;entryDx=0;entryDy=0;" edge="1" parent="1" source="mAhLwM-1dZzHnAY642l9-2" target="mAhLwM-1dZzHnAY642l9-14">
          <mxGeometry width="50" height="50" relative="1" as="geometry">
            <mxPoint x="3320" y="800" as="sourcePoint" />
            <mxPoint x="3370" y="750" as="targetPoint" />
          </mxGeometry>
        </mxCell>
        <mxCell id="mAhLwM-1dZzHnAY642l9-20" value="autossh" style="triangle;whiteSpace=wrap;html=1;" vertex="1" parent="1">
          <mxGeometry x="3575" y="847.5" width="60" height="80" as="geometry" />
        </mxCell>
        <mxCell id="mAhLwM-1dZzHnAY642l9-21" value="" style="endArrow=classic;html=1;rounded=0;exitX=1;exitY=0.5;exitDx=0;exitDy=0;entryX=0;entryY=0.5;entryDx=0;entryDy=0;" edge="1" parent="1" source="mAhLwM-1dZzHnAY642l9-20" target="mAhLwM-1dZzHnAY642l9-2">
          <mxGeometry width="50" height="50" relative="1" as="geometry">
            <mxPoint x="3320" y="800" as="sourcePoint" />
            <mxPoint x="3370" y="750" as="targetPoint" />
          </mxGeometry>
        </mxCell>
        <mxCell id="mAhLwM-1dZzHnAY642l9-24" value="" style="endArrow=classic;html=1;rounded=0;entryX=0;entryY=0.5;entryDx=0;entryDy=0;exitX=1;exitY=0.5;exitDx=0;exitDy=0;" edge="1" parent="1" source="mAhLwM-1dZzHnAY642l9-30" target="mAhLwM-1dZzHnAY642l9-20">
          <mxGeometry width="50" height="50" relative="1" as="geometry">
            <mxPoint x="3530" y="887.5" as="sourcePoint" />
            <mxPoint x="3370" y="750" as="targetPoint" />
          </mxGeometry>
        </mxCell>
        <mxCell id="mAhLwM-1dZzHnAY642l9-27" value="Storm Server" style="rounded=1;whiteSpace=wrap;html=1;" vertex="1" parent="1">
          <mxGeometry x="3850" y="850" width="90" height="95" as="geometry" />
        </mxCell>
        <mxCell id="mAhLwM-1dZzHnAY642l9-28" value="Storm Server" style="rounded=1;whiteSpace=wrap;html=1;" vertex="1" parent="1">
          <mxGeometry x="3860" y="860" width="90" height="95" as="geometry" />
        </mxCell>
        <mxCell id="mAhLwM-1dZzHnAY642l9-30" value="Machine" style="rounded=1;whiteSpace=wrap;html=1;" vertex="1" parent="1">
          <mxGeometry x="3430" y="857.5" width="120" height="60" as="geometry" />
        </mxCell>
        <mxCell id="mAhLwM-1dZzHnAY642l9-31" value="" style="endArrow=classic;html=1;rounded=0;exitX=1;exitY=0.5;exitDx=0;exitDy=0;entryX=0;entryY=0.5;entryDx=0;entryDy=0;" edge="1" parent="1" source="mAhLwM-1dZzHnAY642l9-8" target="mAhLwM-1dZzHnAY642l9-30">
          <mxGeometry width="50" height="50" relative="1" as="geometry">
            <mxPoint x="3320" y="800" as="sourcePoint" />
            <mxPoint x="3370" y="750" as="targetPoint" />
          </mxGeometry>
        </mxCell>
        <mxCell id="mAhLwM-1dZzHnAY642l9-34" value="" style="endArrow=classic;html=1;rounded=0;exitX=1;exitY=0.5;exitDx=0;exitDy=0;entryX=0;entryY=0.5;entryDx=0;entryDy=0;" edge="1" parent="1" source="mAhLwM-1dZzHnAY642l9-12" target="mAhLwM-1dZzHnAY642l9-30">
          <mxGeometry width="50" height="50" relative="1" as="geometry">
            <mxPoint x="3320" y="800" as="sourcePoint" />
            <mxPoint x="3370" y="750" as="targetPoint" />
          </mxGeometry>
        </mxCell>
      </root>
    </mxGraphModel>
  </diagram>
</mxfile>
